<?xml version="1.0" standalone="no"?>
<svg class="main-svg" xmlns="http://www.w3.org/2000/svg" xmlns:xlink="http://www.w3.org/1999/xlink" width="732" height="450" style="background: rgb(255, 255, 255);"><defs id="defs-4e65f4"><g class="clips"><clipPath id="clip4e65f4xyplot" class="plotclip"><rect width="587" height="385"></rect></clipPath><clipPath class="axesclip" id="clip4e65f4x"><rect x="60" y="0" width="587" height="450"></rect></clipPath><clipPath class="axesclip" id="clip4e65f4y"><rect x="0" y="25" width="732" height="385"></rect></clipPath><clipPath class="axesclip" id="clip4e65f4xy"><rect x="60" y="25" width="587" height="385"></rect></clipPath></g><g class="gradients"></g></defs><g class="bglayer"><rect class="bg" x="60" y="25" width="587" height="385" style="fill: rgb(255, 255, 255); fill-opacity: 1; stroke-width: 0;"></rect></g><g class="draglayer cursor-crosshair"><g class="xy"></g></g><g class="layer-below"><g class="imagelayer"></g><g class="shapelayer"></g></g><g class="cartesianlayer"><g class="subplot xy"><g class="layer-subplot"><g class="shapelayer"></g><g class="imagelayer"></g></g><g class="gridlayer"><g class="x"><path class="xgrid crisp" d="M0,25v385" transform="translate(158,0)" style="stroke: rgb(238, 238, 238); stroke-opacity: 1; stroke-width: 1px;"></path><path class="xgrid crisp" d="M0,25v385" transform="translate(283.25,0)" style="stroke: rgb(238, 238, 238); stroke-opacity: 1; stroke-width: 1px;"></path><path class="xgrid crisp" d="M0,25v385" transform="translate(408.49,0)" style="stroke: rgb(238, 238, 238); stroke-opacity: 1; stroke-width: 1px;"></path><path class="xgrid crisp" d="M0,25v385" transform="translate(533.74,0)" style="stroke: rgb(238, 238, 238); stroke-opacity: 1; stroke-width: 1px;"></path></g><g class="y"><path class="ygrid crisp" d="M60,0h587" transform="translate(0,404.66)" style="stroke: rgb(238, 238, 238); stroke-opacity: 1; stroke-width: 1px;"></path><path class="ygrid crisp" d="M60,0h587" transform="translate(0,347.75)" style="stroke: rgb(238, 238, 238); stroke-opacity: 1; stroke-width: 1px;"></path><path class="ygrid crisp" d="M60,0h587" transform="translate(0,290.84)" style="stroke: rgb(238, 238, 238); stroke-opacity: 1; stroke-width: 1px;"></path><path class="ygrid crisp" d="M60,0h587" transform="translate(0,233.93)" style="stroke: rgb(238, 238, 238); stroke-opacity: 1; stroke-width: 1px;"></path><path class="ygrid crisp" d="M60,0h587" transform="translate(0,177.02)" style="stroke: rgb(238, 238, 238); stroke-opacity: 1; stroke-width: 1px;"></path><path class="ygrid crisp" d="M60,0h587" transform="translate(0,120.11)" style="stroke: rgb(238, 238, 238); stroke-opacity: 1; stroke-width: 1px;"></path><path class="ygrid crisp" d="M60,0h587" transform="translate(0,63.2)" style="stroke: rgb(238, 238, 238); stroke-opacity: 1; stroke-width: 1px;"></path></g></g><g class="zerolinelayer"></g><path class="xlines-below"></path><path class="ylines-below"></path><g class="overlines-below"></g><g class="xaxislayer-below"></g><g class="yaxislayer-below"></g><g class="overaxes-below"></g><g class="plot" transform="translate(60, 25)" clip-path="url(#clip4e65f4xyplot)"><g class="scatterlayer mlayer"><g class="trace scatter trace545d45" style="stroke-miterlimit: 2; opacity: 1;"><g class="fills"></g><g class="errorbars"></g><g class="lines"></g><g class="points"><path class="point" transform="translate(315.99,283.76)" d="M6,0A6,6 0 1,1 0,-6A6,6 0 0,1 6,0Z" style="opacity: 1; stroke-width: 0px; fill: rgb(51, 160, 44); fill-opacity: 1;"></path><path class="point" transform="translate(340.6,280.44)" d="M6,0A6,6 0 1,1 0,-6A6,6 0 0,1 6,0Z" style="opacity: 1; stroke-width: 0px; fill: rgb(227, 26, 28); fill-opacity: 1;"></path><path class="point" transform="translate(307.26,291.78)" d="M6,0A6,6 0 1,1 0,-6A6,6 0 0,1 6,0Z" style="opacity: 1; stroke-width: 0px; fill: rgb(192, 192, 192); fill-opacity: 1;"></path><path class="point" transform="translate(341.07,295.63)" d="M6,0A6,6 0 1,1 0,-6A6,6 0 0,1 6,0Z" style="opacity: 1; stroke-width: 0px; fill: rgb(192, 192, 192); fill-opacity: 1;"></path><path class="point" transform="translate(350.94,260.63)" d="M6,0A6,6 0 1,1 0,-6A6,6 0 0,1 6,0Z" style="opacity: 1; stroke-width: 0px; fill: rgb(216, 179, 101); fill-opacity: 1;"></path><path class="point" transform="translate(359.88,275.37)" d="M6,0A6,6 0 1,1 0,-6A6,6 0 0,1 6,0Z" style="opacity: 1; stroke-width: 0px; fill: rgb(227, 26, 28); fill-opacity: 1;"></path><path class="point" transform="translate(326.19,283.37)" d="M6,0A6,6 0 1,1 0,-6A6,6 0 0,1 6,0Z" style="opacity: 1; stroke-width: 0px; fill: rgb(51, 160, 44); fill-opacity: 1;"></path><path class="point" transform="translate(373.6,272.45)" d="M6,0A6,6 0 1,1 0,-6A6,6 0 0,1 6,0Z" style="opacity: 1; stroke-width: 0px; fill: rgb(51, 160, 44); fill-opacity: 1;"></path><path class="point" transform="translate(315.74,281.77)" d="M6,0A6,6 0 1,1 0,-6A6,6 0 0,1 6,0Z" style="opacity: 1; stroke-width: 0px; fill: rgb(216, 179, 101); fill-opacity: 1;"></path><path class="point" transform="translate(288.77,270.96)" d="M6,0A6,6 0 1,1 0,-6A6,6 0 0,1 6,0Z" style="opacity: 1; stroke-width: 0px; fill: rgb(251, 154, 153); fill-opacity: 1;"></path><path class="point" transform="translate(318.73,237.25)" d="M6,0A6,6 0 1,1 0,-6A6,6 0 0,1 6,0Z" style="opacity: 1; stroke-width: 0px; fill: rgb(192, 192, 192); fill-opacity: 1;"></path><path class="point" transform="translate(335.18,268.94)" d="M6,0A6,6 0 1,1 0,-6A6,6 0 0,1 6,0Z" style="opacity: 1; stroke-width: 0px; fill: rgb(251, 154, 153); fill-opacity: 1;"></path><path class="point" transform="translate(334.88,239.55)" d="M6,0A6,6 0 1,1 0,-6A6,6 0 0,1 6,0Z" style="opacity: 1; stroke-width: 0px; fill: rgb(216, 179, 101); fill-opacity: 1;"></path><path class="point" transform="translate(391.33,262.72)" d="M6,0A6,6 0 1,1 0,-6A6,6 0 0,1 6,0Z" style="opacity: 1; stroke-width: 0px; fill: rgb(192, 192, 192); fill-opacity: 1;"></path><path class="point" transform="translate(390.74,252.78)" d="M6,0A6,6 0 1,1 0,-6A6,6 0 0,1 6,0Z" style="opacity: 1; stroke-width: 0px; fill: rgb(216, 179, 101); fill-opacity: 1;"></path><path class="point" transform="translate(319.71,298.04)" d="M6,0A6,6 0 1,1 0,-6A6,6 0 0,1 6,0Z" style="opacity: 1; stroke-width: 0px; fill: rgb(216, 179, 101); fill-opacity: 1;"></path><path class="point" transform="translate(204.49,194.12)" d="M6,0A6,6 0 1,1 0,-6A6,6 0 0,1 6,0Z" style="opacity: 1; stroke-width: 0px; fill: rgb(227, 26, 28); fill-opacity: 1;"></path><path class="point" transform="translate(294.34,325.51)" d="M6,0A6,6 0 1,1 0,-6A6,6 0 0,1 6,0Z" style="opacity: 1; stroke-width: 0px; fill: rgb(178, 223, 138); fill-opacity: 1;"></path><path class="point" transform="translate(301.92,294.97)" d="M6,0A6,6 0 1,1 0,-6A6,6 0 0,1 6,0Z" style="opacity: 1; stroke-width: 0px; fill: rgb(178, 223, 138); fill-opacity: 1;"></path><path class="point" transform="translate(347.97,286.2)" d="M6,0A6,6 0 1,1 0,-6A6,6 0 0,1 6,0Z" style="opacity: 1; stroke-width: 0px; fill: rgb(216, 179, 101); fill-opacity: 1;"></path><path class="point" transform="translate(307.23,312.48)" d="M6,0A6,6 0 1,1 0,-6A6,6 0 0,1 6,0Z" style="opacity: 1; stroke-width: 0px; fill: rgb(216, 179, 101); fill-opacity: 1;"></path><path class="point" transform="translate(240.64,238.02)" d="M6,0A6,6 0 1,1 0,-6A6,6 0 0,1 6,0Z" style="opacity: 1; stroke-width: 0px; fill: rgb(216, 179, 101); fill-opacity: 1;"></path><path class="point" transform="translate(306.18,68.16)" d="M6,0A6,6 0 1,1 0,-6A6,6 0 0,1 6,0Z" style="opacity: 1; stroke-width: 0px; fill: rgb(216, 179, 101); fill-opacity: 1;"></path><path class="point" transform="translate(249.73,208.79)" d="M6,0A6,6 0 1,1 0,-6A6,6 0 0,1 6,0Z" style="opacity: 1; stroke-width: 0px; fill: rgb(192, 192, 192); fill-opacity: 1;"></path><path class="point" transform="translate(354.73,269.76)" d="M6,0A6,6 0 1,1 0,-6A6,6 0 0,1 6,0Z" style="opacity: 1; stroke-width: 0px; fill: rgb(192, 192, 192); fill-opacity: 1;"></path><path class="point" transform="translate(308.66,239.45)" d="M6,0A6,6 0 1,1 0,-6A6,6 0 0,1 6,0Z" style="opacity: 1; stroke-width: 0px; fill: rgb(251, 154, 153); fill-opacity: 1;"></path><path class="point" transform="translate(344.62,298.89)" d="M6,0A6,6 0 1,1 0,-6A6,6 0 0,1 6,0Z" style="opacity: 1; stroke-width: 0px; fill: rgb(51, 160, 44); fill-opacity: 1;"></path><path class="point" transform="translate(306.85,286.84)" d="M6,0A6,6 0 1,1 0,-6A6,6 0 0,1 6,0Z" style="opacity: 1; stroke-width: 0px; fill: rgb(216, 179, 101); fill-opacity: 1;"></path><path class="point" transform="translate(312.45,287.16)" d="M6,0A6,6 0 1,1 0,-6A6,6 0 0,1 6,0Z" style="opacity: 1; stroke-width: 0px; fill: rgb(251, 154, 153); fill-opacity: 1;"></path><path class="point" transform="translate(274.53,44.42)" d="M6,0A6,6 0 1,1 0,-6A6,6 0 0,1 6,0Z" style="opacity: 1; stroke-width: 0px; fill: rgb(51, 160, 44); fill-opacity: 1;"></path><path class="point" transform="translate(360.68,71.48)" d="M6,0A6,6 0 1,1 0,-6A6,6 0 0,1 6,0Z" style="opacity: 1; stroke-width: 0px; fill: rgb(216, 179, 101); fill-opacity: 1;"></path><path class="point" transform="translate(359.03,76.15)" d="M6,0A6,6 0 1,1 0,-6A6,6 0 0,1 6,0Z" style="opacity: 1; stroke-width: 0px; fill: rgb(216, 179, 101); fill-opacity: 1;"></path><path class="point" transform="translate(372.8,77.17)" d="M6,0A6,6 0 1,1 0,-6A6,6 0 0,1 6,0Z" style="opacity: 1; stroke-width: 0px; fill: rgb(216, 179, 101); fill-opacity: 1;"></path><path class="point" transform="translate(337.59,76.81)" d="M6,0A6,6 0 1,1 0,-6A6,6 0 0,1 6,0Z" style="opacity: 1; stroke-width: 0px; fill: rgb(251, 154, 153); fill-opacity: 1;"></path><path class="point" transform="translate(372.85,56.95)" d="M6,0A6,6 0 1,1 0,-6A6,6 0 0,1 6,0Z" style="opacity: 1; stroke-width: 0px; fill: rgb(216, 179, 101); fill-opacity: 1;"></path><path class="point" transform="translate(326.38,300.46)" d="M6,0A6,6 0 1,1 0,-6A6,6 0 0,1 6,0Z" style="opacity: 1; stroke-width: 0px; fill: rgb(216, 179, 101); fill-opacity: 1;"></path><path class="point" transform="translate(392.42,105.2)" d="M6,0A6,6 0 1,1 0,-6A6,6 0 0,1 6,0Z" style="opacity: 1; stroke-width: 0px; fill: rgb(216, 179, 101); fill-opacity: 1;"></path><path class="point" transform="translate(419.31,252.72)" d="M6,0A6,6 0 1,1 0,-6A6,6 0 0,1 6,0Z" style="opacity: 1; stroke-width: 0px; fill: rgb(251, 154, 153); fill-opacity: 1;"></path><path class="point" transform="translate(316.28,320.53)" d="M6,0A6,6 0 1,1 0,-6A6,6 0 0,1 6,0Z" style="opacity: 1; stroke-width: 0px; fill: rgb(216, 179, 101); fill-opacity: 1;"></path><path class="point" transform="translate(300.04,299.59)" d="M6,0A6,6 0 1,1 0,-6A6,6 0 0,1 6,0Z" style="opacity: 1; stroke-width: 0px; fill: rgb(216, 179, 101); fill-opacity: 1;"></path><path class="point" transform="translate(342.76,248.33)" d="M6,0A6,6 0 1,1 0,-6A6,6 0 0,1 6,0Z" style="opacity: 1; stroke-width: 0px; fill: rgb(227, 26, 28); fill-opacity: 1;"></path><path class="point" transform="translate(344.57,276.52)" d="M6,0A6,6 0 1,1 0,-6A6,6 0 0,1 6,0Z" style="opacity: 1; stroke-width: 0px; fill: rgb(227, 26, 28); fill-opacity: 1;"></path><path class="point" transform="translate(357.81,334.27)" d="M6,0A6,6 0 1,1 0,-6A6,6 0 0,1 6,0Z" style="opacity: 1; stroke-width: 0px; fill: rgb(251, 154, 153); fill-opacity: 1;"></path><path class="point" transform="translate(351.09,177.43)" d="M6,0A6,6 0 1,1 0,-6A6,6 0 0,1 6,0Z" style="opacity: 1; stroke-width: 0px; fill: rgb(51, 160, 44); fill-opacity: 1;"></path><path class="point" transform="translate(468.73,269.23)" d="M6,0A6,6 0 1,1 0,-6A6,6 0 0,1 6,0Z" style="opacity: 1; stroke-width: 0px; fill: rgb(51, 160, 44); fill-opacity: 1;"></path><path class="point" transform="translate(452.04,262.49)" d="M6,0A6,6 0 1,1 0,-6A6,6 0 0,1 6,0Z" style="opacity: 1; stroke-width: 0px; fill: rgb(216, 179, 101); fill-opacity: 1;"></path><path class="point" transform="translate(322.94,315.18)" d="M6,0A6,6 0 1,1 0,-6A6,6 0 0,1 6,0Z" style="opacity: 1; stroke-width: 0px; fill: rgb(178, 223, 138); fill-opacity: 1;"></path><path class="point" transform="translate(359.78,257.42)" d="M6,0A6,6 0 1,1 0,-6A6,6 0 0,1 6,0Z" style="opacity: 1; stroke-width: 0px; fill: rgb(216, 179, 101); fill-opacity: 1;"></path><path class="point" transform="translate(357,302.28)" d="M6,0A6,6 0 1,1 0,-6A6,6 0 0,1 6,0Z" style="opacity: 1; stroke-width: 0px; fill: rgb(51, 160, 44); fill-opacity: 1;"></path><path class="point" transform="translate(316.2,316.23)" d="M6,0A6,6 0 1,1 0,-6A6,6 0 0,1 6,0Z" style="opacity: 1; stroke-width: 0px; fill: rgb(51, 160, 44); fill-opacity: 1;"></path><path class="point" transform="translate(365,243.81)" d="M6,0A6,6 0 1,1 0,-6A6,6 0 0,1 6,0Z" style="opacity: 1; stroke-width: 0px; fill: rgb(251, 154, 153); fill-opacity: 1;"></path><path class="point" transform="translate(401.75,249.21)" d="M6,0A6,6 0 1,1 0,-6A6,6 0 0,1 6,0Z" style="opacity: 1; stroke-width: 0px; fill: rgb(251, 154, 153); fill-opacity: 1;"></path><path class="point" transform="translate(314.6,291.03)" d="M6,0A6,6 0 1,1 0,-6A6,6 0 0,1 6,0Z" style="opacity: 1; stroke-width: 0px; fill: rgb(216, 179, 101); fill-opacity: 1;"></path><path class="point" transform="translate(238.73,251.13)" d="M6,0A6,6 0 1,1 0,-6A6,6 0 0,1 6,0Z" style="opacity: 1; stroke-width: 0px; fill: rgb(251, 154, 153); fill-opacity: 1;"></path><path class="point" transform="translate(305.12,273.53)" d="M6,0A6,6 0 1,1 0,-6A6,6 0 0,1 6,0Z" style="opacity: 1; stroke-width: 0px; fill: rgb(251, 154, 153); fill-opacity: 1;"></path><path class="point" transform="translate(371.14,271.47)" d="M6,0A6,6 0 1,1 0,-6A6,6 0 0,1 6,0Z" style="opacity: 1; stroke-width: 0px; fill: rgb(178, 223, 138); fill-opacity: 1;"></path><path class="point" transform="translate(236.07,267.34)" d="M6,0A6,6 0 1,1 0,-6A6,6 0 0,1 6,0Z" style="opacity: 1; stroke-width: 0px; fill: rgb(51, 160, 44); fill-opacity: 1;"></path><path class="point" transform="translate(305.89,308.2)" d="M6,0A6,6 0 1,1 0,-6A6,6 0 0,1 6,0Z" style="opacity: 1; stroke-width: 0px; fill: rgb(251, 154, 153); fill-opacity: 1;"></path><path class="point" transform="translate(372.53,245.22)" d="M6,0A6,6 0 1,1 0,-6A6,6 0 0,1 6,0Z" style="opacity: 1; stroke-width: 0px; fill: rgb(51, 160, 44); fill-opacity: 1;"></path><path class="point" transform="translate(277.39,319.65)" d="M6,0A6,6 0 1,1 0,-6A6,6 0 0,1 6,0Z" style="opacity: 1; stroke-width: 0px; fill: rgb(216, 179, 101); fill-opacity: 1;"></path><path class="point" transform="translate(300.96,254.63)" d="M6,0A6,6 0 1,1 0,-6A6,6 0 0,1 6,0Z" style="opacity: 1; stroke-width: 0px; fill: rgb(51, 160, 44); fill-opacity: 1;"></path><path class="point" transform="translate(354.71,291.37)" d="M6,0A6,6 0 1,1 0,-6A6,6 0 0,1 6,0Z" style="opacity: 1; stroke-width: 0px; fill: rgb(216, 179, 101); fill-opacity: 1;"></path><path class="point" transform="translate(259.24,307.57)" d="M6,0A6,6 0 1,1 0,-6A6,6 0 0,1 6,0Z" style="opacity: 1; stroke-width: 0px; fill: rgb(216, 179, 101); fill-opacity: 1;"></path><path class="point" transform="translate(300.23,271.98)" d="M6,0A6,6 0 1,1 0,-6A6,6 0 0,1 6,0Z" style="opacity: 1; stroke-width: 0px; fill: rgb(251, 154, 153); fill-opacity: 1;"></path><path class="point" transform="translate(306.14,278.03)" d="M6,0A6,6 0 1,1 0,-6A6,6 0 0,1 6,0Z" style="opacity: 1; stroke-width: 0px; fill: rgb(216, 179, 101); fill-opacity: 1;"></path><path class="point" transform="translate(260.36,279.54)" d="M6,0A6,6 0 1,1 0,-6A6,6 0 0,1 6,0Z" style="opacity: 1; stroke-width: 0px; fill: rgb(216, 179, 101); fill-opacity: 1;"></path><path class="point" transform="translate(267.22,282.65)" d="M6,0A6,6 0 1,1 0,-6A6,6 0 0,1 6,0Z" style="opacity: 1; stroke-width: 0px; fill: rgb(51, 160, 44); fill-opacity: 1;"></path><path class="point" transform="translate(435.64,254.22)" d="M6,0A6,6 0 1,1 0,-6A6,6 0 0,1 6,0Z" style="opacity: 1; stroke-width: 0px; fill: rgb(51, 160, 44); fill-opacity: 1;"></path><path class="point" transform="translate(366.94,295.04)" d="M6,0A6,6 0 1,1 0,-6A6,6 0 0,1 6,0Z" style="opacity: 1; stroke-width: 0px; fill: rgb(51, 160, 44); fill-opacity: 1;"></path><path class="point" transform="translate(426.9,203.11)" d="M6,0A6,6 0 1,1 0,-6A6,6 0 0,1 6,0Z" style="opacity: 1; stroke-width: 0px; fill: rgb(51, 160, 44); fill-opacity: 1;"></path><path class="point" transform="translate(376.92,246.33)" d="M6,0A6,6 0 1,1 0,-6A6,6 0 0,1 6,0Z" style="opacity: 1; stroke-width: 0px; fill: rgb(51, 160, 44); fill-opacity: 1;"></path><path class="point" transform="translate(329.78,277.73)" d="M6,0A6,6 0 1,1 0,-6A6,6 0 0,1 6,0Z" style="opacity: 1; stroke-width: 0px; fill: rgb(251, 154, 153); fill-opacity: 1;"></path><path class="point" transform="translate(360.31,244.79)" d="M6,0A6,6 0 1,1 0,-6A6,6 0 0,1 6,0Z" style="opacity: 1; stroke-width: 0px; fill: rgb(192, 192, 192); fill-opacity: 1;"></path><path class="point" transform="translate(296.35,306.27)" d="M6,0A6,6 0 1,1 0,-6A6,6 0 0,1 6,0Z" style="opacity: 1; stroke-width: 0px; fill: rgb(192, 192, 192); fill-opacity: 1;"></path><path class="point" transform="translate(329.57,275.89)" d="M6,0A6,6 0 1,1 0,-6A6,6 0 0,1 6,0Z" style="opacity: 1; stroke-width: 0px; fill: rgb(216, 179, 101); fill-opacity: 1;"></path><path class="point" transform="translate(362.26,246.6)" d="M6,0A6,6 0 1,1 0,-6A6,6 0 0,1 6,0Z" style="opacity: 1; stroke-width: 0px; fill: rgb(216, 179, 101); fill-opacity: 1;"></path><path class="point" transform="translate(296.88,290.91)" d="M6,0A6,6 0 1,1 0,-6A6,6 0 0,1 6,0Z" style="opacity: 1; stroke-width: 0px; fill: rgb(216, 179, 101); fill-opacity: 1;"></path><path class="point" transform="translate(181.66,270.65)" d="M6,0A6,6 0 1,1 0,-6A6,6 0 0,1 6,0Z" style="opacity: 1; stroke-width: 0px; fill: rgb(216, 179, 101); fill-opacity: 1;"></path><path class="point" transform="translate(67.73,196.81)" d="M6,0A6,6 0 1,1 0,-6A6,6 0 0,1 6,0Z" style="opacity: 1; stroke-width: 0px; fill: rgb(216, 179, 101); fill-opacity: 1;"></path><path class="point" transform="translate(356.24,263.31)" d="M6,0A6,6 0 1,1 0,-6A6,6 0 0,1 6,0Z" style="opacity: 1; stroke-width: 0px; fill: rgb(251, 154, 153); fill-opacity: 1;"></path><path class="point" transform="translate(287.26,299.11)" d="M6,0A6,6 0 1,1 0,-6A6,6 0 0,1 6,0Z" style="opacity: 1; stroke-width: 0px; fill: rgb(216, 179, 101); fill-opacity: 1;"></path><path class="point" transform="translate(240.32,302.67)" d="M6,0A6,6 0 1,1 0,-6A6,6 0 0,1 6,0Z" style="opacity: 1; stroke-width: 0px; fill: rgb(192, 192, 192); fill-opacity: 1;"></path><path class="point" transform="translate(457.97,287.2)" d="M6,0A6,6 0 1,1 0,-6A6,6 0 0,1 6,0Z" style="opacity: 1; stroke-width: 0px; fill: rgb(192, 192, 192); fill-opacity: 1;"></path><path class="point" transform="translate(400.29,326.09)" d="M6,0A6,6 0 1,1 0,-6A6,6 0 0,1 6,0Z" style="opacity: 1; stroke-width: 0px; fill: rgb(192, 192, 192); fill-opacity: 1;"></path><path class="point" transform="translate(471.14,219.41)" d="M6,0A6,6 0 1,1 0,-6A6,6 0 0,1 6,0Z" style="opacity: 1; stroke-width: 0px; fill: rgb(192, 192, 192); fill-opacity: 1;"></path><path class="point" transform="translate(430.57,322.38)" d="M6,0A6,6 0 1,1 0,-6A6,6 0 0,1 6,0Z" style="opacity: 1; stroke-width: 0px; fill: rgb(192, 192, 192); fill-opacity: 1;"></path><path class="point" transform="translate(465.78,237.95)" d="M6,0A6,6 0 1,1 0,-6A6,6 0 0,1 6,0Z" style="opacity: 1; stroke-width: 0px; fill: rgb(192, 192, 192); fill-opacity: 1;"></path><path class="point" transform="translate(404.93,289.79)" d="M6,0A6,6 0 1,1 0,-6A6,6 0 0,1 6,0Z" style="opacity: 1; stroke-width: 0px; fill: rgb(192, 192, 192); fill-opacity: 1;"></path><path class="point" transform="translate(409.48,311.33)" d="M6,0A6,6 0 1,1 0,-6A6,6 0 0,1 6,0Z" style="opacity: 1; stroke-width: 0px; fill: rgb(192, 192, 192); fill-opacity: 1;"></path><path class="point" transform="translate(400.85,312.29)" d="M6,0A6,6 0 1,1 0,-6A6,6 0 0,1 6,0Z" style="opacity: 1; stroke-width: 0px; fill: rgb(192, 192, 192); fill-opacity: 1;"></path><path class="point" transform="translate(351.1,231.83)" d="M6,0A6,6 0 1,1 0,-6A6,6 0 0,1 6,0Z" style="opacity: 1; stroke-width: 0px; fill: rgb(192, 192, 192); fill-opacity: 1;"></path><path class="point" transform="translate(471.46,267.76)" d="M6,0A6,6 0 1,1 0,-6A6,6 0 0,1 6,0Z" style="opacity: 1; stroke-width: 0px; fill: rgb(192, 192, 192); fill-opacity: 1;"></path><path class="point" transform="translate(456.35,259.57)" d="M6,0A6,6 0 1,1 0,-6A6,6 0 0,1 6,0Z" style="opacity: 1; stroke-width: 0px; fill: rgb(192, 192, 192); fill-opacity: 1;"></path><path class="point" transform="translate(355.29,317.81)" d="M6,0A6,6 0 1,1 0,-6A6,6 0 0,1 6,0Z" style="opacity: 1; stroke-width: 0px; fill: rgb(192, 192, 192); fill-opacity: 1;"></path><path class="point" transform="translate(418.91,297.6)" d="M6,0A6,6 0 1,1 0,-6A6,6 0 0,1 6,0Z" style="opacity: 1; stroke-width: 0px; fill: rgb(192, 192, 192); fill-opacity: 1;"></path><path class="point" transform="translate(407.34,277.68)" d="M6,0A6,6 0 1,1 0,-6A6,6 0 0,1 6,0Z" style="opacity: 1; stroke-width: 0px; fill: rgb(192, 192, 192); fill-opacity: 1;"></path><path class="point" transform="translate(444.58,207.18)" d="M6,0A6,6 0 1,1 0,-6A6,6 0 0,1 6,0Z" style="opacity: 1; stroke-width: 0px; fill: rgb(192, 192, 192); fill-opacity: 1;"></path><path class="point" transform="translate(417.44,303.29)" d="M6,0A6,6 0 1,1 0,-6A6,6 0 0,1 6,0Z" style="opacity: 1; stroke-width: 0px; fill: rgb(192, 192, 192); fill-opacity: 1;"></path><path class="point" transform="translate(429.96,264.11)" d="M6,0A6,6 0 1,1 0,-6A6,6 0 0,1 6,0Z" style="opacity: 1; stroke-width: 0px; fill: rgb(192, 192, 192); fill-opacity: 1;"></path><path class="point" transform="translate(393.69,281.71)" d="M6,0A6,6 0 1,1 0,-6A6,6 0 0,1 6,0Z" style="opacity: 1; stroke-width: 0px; fill: rgb(192, 192, 192); fill-opacity: 1;"></path><path class="point" transform="translate(385.35,257.81)" d="M6,0A6,6 0 1,1 0,-6A6,6 0 0,1 6,0Z" style="opacity: 1; stroke-width: 0px; fill: rgb(192, 192, 192); fill-opacity: 1;"></path><path class="point" transform="translate(361.4,232.42)" d="M6,0A6,6 0 1,1 0,-6A6,6 0 0,1 6,0Z" style="opacity: 1; stroke-width: 0px; fill: rgb(192, 192, 192); fill-opacity: 1;"></path><path class="point" transform="translate(326.3,270.57)" d="M6,0A6,6 0 1,1 0,-6A6,6 0 0,1 6,0Z" style="opacity: 1; stroke-width: 0px; fill: rgb(192, 192, 192); fill-opacity: 1;"></path><path class="point" transform="translate(381.04,291.49)" d="M6,0A6,6 0 1,1 0,-6A6,6 0 0,1 6,0Z" style="opacity: 1; stroke-width: 0px; fill: rgb(192, 192, 192); fill-opacity: 1;"></path><path class="point" transform="translate(343.9,270.75)" d="M6,0A6,6 0 1,1 0,-6A6,6 0 0,1 6,0Z" style="opacity: 1; stroke-width: 0px; fill: rgb(192, 192, 192); fill-opacity: 1;"></path><path class="point" transform="translate(289.84,282.24)" d="M6,0A6,6 0 1,1 0,-6A6,6 0 0,1 6,0Z" style="opacity: 1; stroke-width: 0px; fill: rgb(216, 179, 101); fill-opacity: 1;"></path><path class="point" transform="translate(390.27,241.22)" d="M6,0A6,6 0 1,1 0,-6A6,6 0 0,1 6,0Z" style="opacity: 1; stroke-width: 0px; fill: rgb(216, 179, 101); fill-opacity: 1;"></path><path class="point" transform="translate(385.82,290.74)" d="M6,0A6,6 0 1,1 0,-6A6,6 0 0,1 6,0Z" style="opacity: 1; stroke-width: 0px; fill: rgb(178, 223, 138); fill-opacity: 1;"></path><path class="point" transform="translate(324.68,270.44)" d="M6,0A6,6 0 1,1 0,-6A6,6 0 0,1 6,0Z" style="opacity: 1; stroke-width: 0px; fill: rgb(51, 160, 44); fill-opacity: 1;"></path><path class="point" transform="translate(287.95,297.55)" d="M6,0A6,6 0 1,1 0,-6A6,6 0 0,1 6,0Z" style="opacity: 1; stroke-width: 0px; fill: rgb(51, 160, 44); fill-opacity: 1;"></path><path class="point" transform="translate(321.21,270.57)" d="M6,0A6,6 0 1,1 0,-6A6,6 0 0,1 6,0Z" style="opacity: 1; stroke-width: 0px; fill: rgb(192, 192, 192); fill-opacity: 1;"></path><path class="point" transform="translate(302.5,292.84)" d="M6,0A6,6 0 1,1 0,-6A6,6 0 0,1 6,0Z" style="opacity: 1; stroke-width: 0px; fill: rgb(192, 192, 192); fill-opacity: 1;"></path><path class="point" transform="translate(361.53,325.15)" d="M6,0A6,6 0 1,1 0,-6A6,6 0 0,1 6,0Z" style="opacity: 1; stroke-width: 0px; fill: rgb(178, 223, 138); fill-opacity: 1;"></path><path class="point" transform="translate(459.58,297.63)" d="M6,0A6,6 0 1,1 0,-6A6,6 0 0,1 6,0Z" style="opacity: 1; stroke-width: 0px; fill: rgb(216, 179, 101); fill-opacity: 1;"></path><path class="point" transform="translate(405.42,338.88)" d="M6,0A6,6 0 1,1 0,-6A6,6 0 0,1 6,0Z" style="opacity: 1; stroke-width: 0px; fill: rgb(216, 179, 101); fill-opacity: 1;"></path><path class="point" transform="translate(435.49,311.01)" d="M6,0A6,6 0 1,1 0,-6A6,6 0 0,1 6,0Z" style="opacity: 1; stroke-width: 0px; fill: rgb(216, 179, 101); fill-opacity: 1;"></path><path class="point" transform="translate(433.47,280.2)" d="M6,0A6,6 0 1,1 0,-6A6,6 0 0,1 6,0Z" style="opacity: 1; stroke-width: 0px; fill: rgb(178, 223, 138); fill-opacity: 1;"></path><path class="point" transform="translate(405.52,301.12)" d="M6,0A6,6 0 1,1 0,-6A6,6 0 0,1 6,0Z" style="opacity: 1; stroke-width: 0px; fill: rgb(178, 223, 138); fill-opacity: 1;"></path><path class="point" transform="translate(423.25,299.42)" d="M6,0A6,6 0 1,1 0,-6A6,6 0 0,1 6,0Z" style="opacity: 1; stroke-width: 0px; fill: rgb(216, 179, 101); fill-opacity: 1;"></path><path class="point" transform="translate(406.77,298.17)" d="M6,0A6,6 0 1,1 0,-6A6,6 0 0,1 6,0Z" style="opacity: 1; stroke-width: 0px; fill: rgb(216, 179, 101); fill-opacity: 1;"></path><path class="point" transform="translate(362.57,310.4)" d="M6,0A6,6 0 1,1 0,-6A6,6 0 0,1 6,0Z" style="opacity: 1; stroke-width: 0px; fill: rgb(51, 160, 44); fill-opacity: 1;"></path><path class="point" transform="translate(395.33,330.46)" d="M6,0A6,6 0 1,1 0,-6A6,6 0 0,1 6,0Z" style="opacity: 1; stroke-width: 0px; fill: rgb(178, 223, 138); fill-opacity: 1;"></path><path class="point" transform="translate(349.1,306.07)" d="M6,0A6,6 0 1,1 0,-6A6,6 0 0,1 6,0Z" style="opacity: 1; stroke-width: 0px; fill: rgb(178, 223, 138); fill-opacity: 1;"></path><path class="point" transform="translate(447.11,275.13)" d="M6,0A6,6 0 1,1 0,-6A6,6 0 0,1 6,0Z" style="opacity: 1; stroke-width: 0px; fill: rgb(192, 192, 192); fill-opacity: 1;"></path><path class="point" transform="translate(335.26,273.45)" d="M6,0A6,6 0 1,1 0,-6A6,6 0 0,1 6,0Z" style="opacity: 1; stroke-width: 0px; fill: rgb(216, 179, 101); fill-opacity: 1;"></path><path class="point" transform="translate(429.45,303.39)" d="M6,0A6,6 0 1,1 0,-6A6,6 0 0,1 6,0Z" style="opacity: 1; stroke-width: 0px; fill: rgb(216, 179, 101); fill-opacity: 1;"></path><path class="point" transform="translate(441.18,289.08)" d="M6,0A6,6 0 1,1 0,-6A6,6 0 0,1 6,0Z" style="opacity: 1; stroke-width: 0px; fill: rgb(251, 154, 153); fill-opacity: 1;"></path><path class="point" transform="translate(440.1,340.58)" d="M6,0A6,6 0 1,1 0,-6A6,6 0 0,1 6,0Z" style="opacity: 1; stroke-width: 0px; fill: rgb(51, 160, 44); fill-opacity: 1;"></path><path class="point" transform="translate(519.27,238.49)" d="M6,0A6,6 0 1,1 0,-6A6,6 0 0,1 6,0Z" style="opacity: 1; stroke-width: 0px; fill: rgb(227, 26, 28); fill-opacity: 1;"></path><path class="point" transform="translate(444.97,238.78)" d="M6,0A6,6 0 1,1 0,-6A6,6 0 0,1 6,0Z" style="opacity: 1; stroke-width: 0px; fill: rgb(51, 160, 44); fill-opacity: 1;"></path><path class="point" transform="translate(386.35,316.08)" d="M6,0A6,6 0 1,1 0,-6A6,6 0 0,1 6,0Z" style="opacity: 1; stroke-width: 0px; fill: rgb(251, 154, 153); fill-opacity: 1;"></path><path class="point" transform="translate(375.5,270.86)" d="M6,0A6,6 0 1,1 0,-6A6,6 0 0,1 6,0Z" style="opacity: 1; stroke-width: 0px; fill: rgb(216, 179, 101); fill-opacity: 1;"></path><path class="point" transform="translate(279.54,288.7)" d="M6,0A6,6 0 1,1 0,-6A6,6 0 0,1 6,0Z" style="opacity: 1; stroke-width: 0px; fill: rgb(216, 179, 101); fill-opacity: 1;"></path><path class="point" transform="translate(377.67,244.63)" d="M6,0A6,6 0 1,1 0,-6A6,6 0 0,1 6,0Z" style="opacity: 1; stroke-width: 0px; fill: rgb(216, 179, 101); fill-opacity: 1;"></path><path class="point" transform="translate(348.46,314.82)" d="M6,0A6,6 0 1,1 0,-6A6,6 0 0,1 6,0Z" style="opacity: 1; stroke-width: 0px; fill: rgb(178, 223, 138); fill-opacity: 1;"></path><path class="point" transform="translate(384.87,268.78)" d="M6,0A6,6 0 1,1 0,-6A6,6 0 0,1 6,0Z" style="opacity: 1; stroke-width: 0px; fill: rgb(216, 179, 101); fill-opacity: 1;"></path><path class="point" transform="translate(308.08,289.98)" d="M6,0A6,6 0 1,1 0,-6A6,6 0 0,1 6,0Z" style="opacity: 1; stroke-width: 0px; fill: rgb(178, 223, 138); fill-opacity: 1;"></path><path class="point" transform="translate(325.14,257.48)" d="M6,0A6,6 0 1,1 0,-6A6,6 0 0,1 6,0Z" style="opacity: 1; stroke-width: 0px; fill: rgb(178, 223, 138); fill-opacity: 1;"></path><path class="point" transform="translate(318.21,303.92)" d="M6,0A6,6 0 1,1 0,-6A6,6 0 0,1 6,0Z" style="opacity: 1; stroke-width: 0px; fill: rgb(251, 154, 153); fill-opacity: 1;"></path><path class="point" transform="translate(287.76,293.72)" d="M6,0A6,6 0 1,1 0,-6A6,6 0 0,1 6,0Z" style="opacity: 1; stroke-width: 0px; fill: rgb(251, 154, 153); fill-opacity: 1;"></path><path class="point" transform="translate(373.4,220.78)" d="M6,0A6,6 0 1,1 0,-6A6,6 0 0,1 6,0Z" style="opacity: 1; stroke-width: 0px; fill: rgb(216, 179, 101); fill-opacity: 1;"></path><path class="point" transform="translate(338.38,292.61)" d="M6,0A6,6 0 1,1 0,-6A6,6 0 0,1 6,0Z" style="opacity: 1; stroke-width: 0px; fill: rgb(216, 179, 101); fill-opacity: 1;"></path><path class="point" transform="translate(267.82,285.37)" d="M6,0A6,6 0 1,1 0,-6A6,6 0 0,1 6,0Z" style="opacity: 1; stroke-width: 0px; fill: rgb(216, 179, 101); fill-opacity: 1;"></path><path class="point" transform="translate(409.95,265.28)" d="M6,0A6,6 0 1,1 0,-6A6,6 0 0,1 6,0Z" style="opacity: 1; stroke-width: 0px; fill: rgb(51, 160, 44); fill-opacity: 1;"></path><path class="point" transform="translate(340.52,253.01)" d="M6,0A6,6 0 1,1 0,-6A6,6 0 0,1 6,0Z" style="opacity: 1; stroke-width: 0px; fill: rgb(251, 154, 153); fill-opacity: 1;"></path><path class="point" transform="translate(397.17,241.08)" d="M6,0A6,6 0 1,1 0,-6A6,6 0 0,1 6,0Z" style="opacity: 1; stroke-width: 0px; fill: rgb(51, 160, 44); fill-opacity: 1;"></path><path class="point" transform="translate(380.73,269.53)" d="M6,0A6,6 0 1,1 0,-6A6,6 0 0,1 6,0Z" style="opacity: 1; stroke-width: 0px; fill: rgb(251, 154, 153); fill-opacity: 1;"></path><path class="point" transform="translate(384.08,242.2)" d="M6,0A6,6 0 1,1 0,-6A6,6 0 0,1 6,0Z" style="opacity: 1; stroke-width: 0px; fill: rgb(251, 154, 153); fill-opacity: 1;"></path><path class="point" transform="translate(322.04,305.5)" d="M6,0A6,6 0 1,1 0,-6A6,6 0 0,1 6,0Z" style="opacity: 1; stroke-width: 0px; fill: rgb(251, 154, 153); fill-opacity: 1;"></path><path class="point" transform="translate(435.6,229.87)" d="M6,0A6,6 0 1,1 0,-6A6,6 0 0,1 6,0Z" style="opacity: 1; stroke-width: 0px; fill: rgb(178, 223, 138); fill-opacity: 1;"></path><path class="point" transform="translate(411.9,237.06)" d="M6,0A6,6 0 1,1 0,-6A6,6 0 0,1 6,0Z" style="opacity: 1; stroke-width: 0px; fill: rgb(216, 179, 101); fill-opacity: 1;"></path><path class="point" transform="translate(329.27,305.49)" d="M6,0A6,6 0 1,1 0,-6A6,6 0 0,1 6,0Z" style="opacity: 1; stroke-width: 0px; fill: rgb(216, 179, 101); fill-opacity: 1;"></path><path class="point" transform="translate(296.6,274.04)" d="M6,0A6,6 0 1,1 0,-6A6,6 0 0,1 6,0Z" style="opacity: 1; stroke-width: 0px; fill: rgb(178, 223, 138); fill-opacity: 1;"></path><path class="point" transform="translate(239.95,231.32)" d="M6,0A6,6 0 1,1 0,-6A6,6 0 0,1 6,0Z" style="opacity: 1; stroke-width: 0px; fill: rgb(216, 179, 101); fill-opacity: 1;"></path><path class="point" transform="translate(353.41,255.12)" d="M6,0A6,6 0 1,1 0,-6A6,6 0 0,1 6,0Z" style="opacity: 1; stroke-width: 0px; fill: rgb(51, 160, 44); fill-opacity: 1;"></path><path class="point" transform="translate(321.45,313.01)" d="M6,0A6,6 0 1,1 0,-6A6,6 0 0,1 6,0Z" style="opacity: 1; stroke-width: 0px; fill: rgb(216, 179, 101); fill-opacity: 1;"></path><path class="point" transform="translate(184.68,257.87)" d="M6,0A6,6 0 1,1 0,-6A6,6 0 0,1 6,0Z" style="opacity: 1; stroke-width: 0px; fill: rgb(51, 160, 44); fill-opacity: 1;"></path><path class="point" transform="translate(280.11,294.23)" d="M6,0A6,6 0 1,1 0,-6A6,6 0 0,1 6,0Z" style="opacity: 1; stroke-width: 0px; fill: rgb(51, 160, 44); fill-opacity: 1;"></path><path class="point" transform="translate(357.8,242.28)" d="M6,0A6,6 0 1,1 0,-6A6,6 0 0,1 6,0Z" style="opacity: 1; stroke-width: 0px; fill: rgb(216, 179, 101); fill-opacity: 1;"></path><path class="point" transform="translate(277.18,279.73)" d="M6,0A6,6 0 1,1 0,-6A6,6 0 0,1 6,0Z" style="opacity: 1; stroke-width: 0px; fill: rgb(216, 179, 101); fill-opacity: 1;"></path><path class="point" transform="translate(327.36,271.85)" d="M6,0A6,6 0 1,1 0,-6A6,6 0 0,1 6,0Z" style="opacity: 1; stroke-width: 0px; fill: rgb(216, 179, 101); fill-opacity: 1;"></path><path class="point" transform="translate(377.37,256.89)" d="M6,0A6,6 0 1,1 0,-6A6,6 0 0,1 6,0Z" style="opacity: 1; stroke-width: 0px; fill: rgb(216, 179, 101); fill-opacity: 1;"></path><path class="point" transform="translate(340.42,231.28)" d="M6,0A6,6 0 1,1 0,-6A6,6 0 0,1 6,0Z" style="opacity: 1; stroke-width: 0px; fill: rgb(178, 223, 138); fill-opacity: 1;"></path><path class="point" transform="translate(341.11,310.19)" d="M6,0A6,6 0 1,1 0,-6A6,6 0 0,1 6,0Z" style="opacity: 1; stroke-width: 0px; fill: rgb(51, 160, 44); fill-opacity: 1;"></path><path class="point" transform="translate(306.45,293.92)" d="M6,0A6,6 0 1,1 0,-6A6,6 0 0,1 6,0Z" style="opacity: 1; stroke-width: 0px; fill: rgb(216, 179, 101); fill-opacity: 1;"></path><path class="point" transform="translate(356.38,261.05)" d="M6,0A6,6 0 1,1 0,-6A6,6 0 0,1 6,0Z" style="opacity: 1; stroke-width: 0px; fill: rgb(51, 160, 44); fill-opacity: 1;"></path><path class="point" transform="translate(370.55,275.83)" d="M6,0A6,6 0 1,1 0,-6A6,6 0 0,1 6,0Z" style="opacity: 1; stroke-width: 0px; fill: rgb(51, 160, 44); fill-opacity: 1;"></path><path class="point" transform="translate(238.58,255.45)" d="M6,0A6,6 0 1,1 0,-6A6,6 0 0,1 6,0Z" style="opacity: 1; stroke-width: 0px; fill: rgb(216, 179, 101); fill-opacity: 1;"></path><path class="point" transform="translate(232.17,257.02)" d="M6,0A6,6 0 1,1 0,-6A6,6 0 0,1 6,0Z" style="opacity: 1; stroke-width: 0px; fill: rgb(216, 179, 101); fill-opacity: 1;"></path><path class="point" transform="translate(326.24,285.33)" d="M6,0A6,6 0 1,1 0,-6A6,6 0 0,1 6,0Z" style="opacity: 1; stroke-width: 0px; fill: rgb(51, 160, 44); fill-opacity: 1;"></path><path class="point" transform="translate(291.46,298.43)" d="M6,0A6,6 0 1,1 0,-6A6,6 0 0,1 6,0Z" style="opacity: 1; stroke-width: 0px; fill: rgb(216, 179, 101); fill-opacity: 1;"></path><path class="point" transform="translate(336.34,214.83)" d="M6,0A6,6 0 1,1 0,-6A6,6 0 0,1 6,0Z" style="opacity: 1; stroke-width: 0px; fill: rgb(216, 179, 101); fill-opacity: 1;"></path><path class="point" transform="translate(417.51,222.31)" d="M6,0A6,6 0 1,1 0,-6A6,6 0 0,1 6,0Z" style="opacity: 1; stroke-width: 0px; fill: rgb(216, 179, 101); fill-opacity: 1;"></path><path class="point" transform="translate(406.36,204.51)" d="M6,0A6,6 0 1,1 0,-6A6,6 0 0,1 6,0Z" style="opacity: 1; stroke-width: 0px; fill: rgb(216, 179, 101); fill-opacity: 1;"></path><path class="point" transform="translate(340.73,269.06)" d="M6,0A6,6 0 1,1 0,-6A6,6 0 0,1 6,0Z" style="opacity: 1; stroke-width: 0px; fill: rgb(178, 223, 138); fill-opacity: 1;"></path><path class="point" transform="translate(337.53,288.34)" d="M6,0A6,6 0 1,1 0,-6A6,6 0 0,1 6,0Z" style="opacity: 1; stroke-width: 0px; fill: rgb(178, 223, 138); fill-opacity: 1;"></path><path class="point" transform="translate(360.94,256.94)" d="M6,0A6,6 0 1,1 0,-6A6,6 0 0,1 6,0Z" style="opacity: 1; stroke-width: 0px; fill: rgb(227, 26, 28); fill-opacity: 1;"></path><path class="point" transform="translate(388.56,240.72)" d="M6,0A6,6 0 1,1 0,-6A6,6 0 0,1 6,0Z" style="opacity: 1; stroke-width: 0px; fill: rgb(178, 223, 138); fill-opacity: 1;"></path><path class="point" transform="translate(362.97,273.42)" d="M6,0A6,6 0 1,1 0,-6A6,6 0 0,1 6,0Z" style="opacity: 1; stroke-width: 0px; fill: rgb(216, 179, 101); fill-opacity: 1;"></path><path class="point" transform="translate(357.71,278.17)" d="M6,0A6,6 0 1,1 0,-6A6,6 0 0,1 6,0Z" style="opacity: 1; stroke-width: 0px; fill: rgb(216, 179, 101); fill-opacity: 1;"></path><path class="point" transform="translate(305.13,301.63)" d="M6,0A6,6 0 1,1 0,-6A6,6 0 0,1 6,0Z" style="opacity: 1; stroke-width: 0px; fill: rgb(216, 179, 101); fill-opacity: 1;"></path><path class="point" transform="translate(242.97,292.37)" d="M6,0A6,6 0 1,1 0,-6A6,6 0 0,1 6,0Z" style="opacity: 1; stroke-width: 0px; fill: rgb(178, 223, 138); fill-opacity: 1;"></path><path class="point" transform="translate(385.73,257.77)" d="M6,0A6,6 0 1,1 0,-6A6,6 0 0,1 6,0Z" style="opacity: 1; stroke-width: 0px; fill: rgb(216, 179, 101); fill-opacity: 1;"></path></g><g class="text"></g></g><g class="trace scatter trace6064b9" style="stroke-miterlimit: 2; opacity: 1;"><g class="fills"></g><g class="errorbars"></g><g class="lines"></g><g class="points"><path class="point" transform="translate(1600.95,-872.35)" d="M5,0A5,5 0 1,1 0,-5A5,5 0 0,1 5,0Z" style="opacity: 1; stroke-width: 0px; fill: rgb(216, 179, 101); fill-opacity: 1;"></path></g><g class="text"></g></g><g class="trace scatter trace92dd0e" style="stroke-miterlimit: 2; opacity: 1;"><g class="fills"></g><g class="errorbars"></g><g class="lines"></g><g class="points"><path class="point" transform="translate(1600.95,-872.35)" d="M5,0A5,5 0 1,1 0,-5A5,5 0 0,1 5,0Z" style="opacity: 1; stroke-width: 0px; fill: rgb(178, 223, 138); fill-opacity: 1;"></path></g><g class="text"></g></g><g class="trace scatter trace9e14e7" style="stroke-miterlimit: 2; opacity: 1;"><g class="fills"></g><g class="errorbars"></g><g class="lines"></g><g class="points"><path class="point" transform="translate(1600.95,-872.35)" d="M5,0A5,5 0 1,1 0,-5A5,5 0 0,1 5,0Z" style="opacity: 1; stroke-width: 0px; fill: rgb(51, 160, 44); fill-opacity: 1;"></path></g><g class="text"></g></g><g class="trace scatter trace385b80" style="stroke-miterlimit: 2; opacity: 1;"><g class="fills"></g><g class="errorbars"></g><g class="lines"></g><g class="points"><path class="point" transform="translate(1600.95,-872.35)" d="M5,0A5,5 0 1,1 0,-5A5,5 0 0,1 5,0Z" style="opacity: 1; stroke-width: 0px; fill: rgb(251, 154, 153); fill-opacity: 1;"></path></g><g class="text"></g></g><g class="trace scatter trace0e4eb9" style="stroke-miterlimit: 2; opacity: 1;"><g class="fills"></g><g class="errorbars"></g><g class="lines"></g><g class="points"><path class="point" transform="translate(1600.95,-872.35)" d="M5,0A5,5 0 1,1 0,-5A5,5 0 0,1 5,0Z" style="opacity: 1; stroke-width: 0px; fill: rgb(227, 26, 28); fill-opacity: 1;"></path></g><g class="text"></g></g><g class="trace scatter traced32c35" style="stroke-miterlimit: 2; opacity: 1;"><g class="fills"></g><g class="errorbars"></g><g class="lines"></g><g class="points"><path class="point" transform="translate(1600.95,-872.35)" d="M5,0A5,5 0 1,1 0,-5A5,5 0 0,1 5,0Z" style="opacity: 1; stroke-width: 0px; fill: rgb(192, 192, 192); fill-opacity: 1;"></path></g><g class="text"></g></g></g></g><g class="overplot"></g><path class="xlines-above crisp" d="M0,0" style="fill: none;"></path><path class="ylines-above crisp" d="M0,0" style="fill: none;"></path><g class="overlines-above"></g><g class="xaxislayer-above"><g class="xtick"><text text-anchor="middle" x="0" y="423" data-unformatted="−200" data-math="N" transform="translate(158,0)" style="font-family: &quot;Open Sans&quot;, verdana, arial, sans-serif; font-size: 12px; fill: rgb(68, 68, 68); fill-opacity: 1; white-space: pre;">−200</text></g><g class="xtick"><text text-anchor="middle" x="0" y="423" data-unformatted="−100" data-math="N" transform="translate(283.25,0)" style="font-family: &quot;Open Sans&quot;, verdana, arial, sans-serif; font-size: 12px; fill: rgb(68, 68, 68); fill-opacity: 1; white-space: pre;">−100</text></g><g class="xtick"><text text-anchor="middle" x="0" y="423" data-unformatted="0" data-math="N" transform="translate(408.49,0)" style="font-family: &quot;Open Sans&quot;, verdana, arial, sans-serif; font-size: 12px; fill: rgb(68, 68, 68); fill-opacity: 1; white-space: pre;">0</text></g><g class="xtick"><text text-anchor="middle" x="0" y="423" data-unformatted="100" data-math="N" transform="translate(533.74,0)" style="font-family: &quot;Open Sans&quot;, verdana, arial, sans-serif; font-size: 12px; fill: rgb(68, 68, 68); fill-opacity: 1; white-space: pre;">100</text></g></g><g class="yaxislayer-above"><g class="ytick"><text text-anchor="end" x="59" y="4.199999999999999" data-unformatted="−100" data-math="N" transform="translate(0,404.66)" style="font-family: &quot;Open Sans&quot;, verdana, arial, sans-serif; font-size: 12px; fill: rgb(68, 68, 68); fill-opacity: 1; white-space: pre;">−100</text></g><g class="ytick"><text text-anchor="end" x="59" y="4.199999999999999" data-unformatted="−50" data-math="N" transform="translate(0,347.75)" style="font-family: &quot;Open Sans&quot;, verdana, arial, sans-serif; font-size: 12px; fill: rgb(68, 68, 68); fill-opacity: 1; white-space: pre;">−50</text></g><g class="ytick"><text text-anchor="end" x="59" y="4.199999999999999" data-unformatted="0" data-math="N" transform="translate(0,290.84)" style="font-family: &quot;Open Sans&quot;, verdana, arial, sans-serif; font-size: 12px; fill: rgb(68, 68, 68); fill-opacity: 1; white-space: pre;">0</text></g><g class="ytick"><text text-anchor="end" x="59" y="4.199999999999999" data-unformatted="50" data-math="N" transform="translate(0,233.93)" style="font-family: &quot;Open Sans&quot;, verdana, arial, sans-serif; font-size: 12px; fill: rgb(68, 68, 68); fill-opacity: 1; white-space: pre;">50</text></g><g class="ytick"><text text-anchor="end" x="59" y="4.199999999999999" data-unformatted="100" data-math="N" transform="translate(0,177.02)" style="font-family: &quot;Open Sans&quot;, verdana, arial, sans-serif; font-size: 12px; fill: rgb(68, 68, 68); fill-opacity: 1; white-space: pre;">100</text></g><g class="ytick"><text text-anchor="end" x="59" y="4.199999999999999" data-unformatted="150" data-math="N" transform="translate(0,120.11)" style="font-family: &quot;Open Sans&quot;, verdana, arial, sans-serif; font-size: 12px; fill: rgb(68, 68, 68); fill-opacity: 1; white-space: pre;">150</text></g><g class="ytick"><text text-anchor="end" x="59" y="4.199999999999999" data-unformatted="200" data-math="N" transform="translate(0,63.2)" style="font-family: &quot;Open Sans&quot;, verdana, arial, sans-serif; font-size: 12px; fill: rgb(68, 68, 68); fill-opacity: 1; white-space: pre;">200</text></g></g><g class="overaxes-above"></g></g></g><g class="polarlayer"></g><g class="ternarylayer"></g><g class="geolayer"></g><g class="pielayer"></g><g class="glimages"></g><defs id="topdefs-4e65f4"><g class="clips"></g><clipPath id="legend4e65f4"><rect width="63" height="124" x="0" y="0"></rect></clipPath></defs><g class="layer-above"><g class="imagelayer"></g><g class="shapelayer"></g></g><g class="infolayer"><g class="legend" pointer-events="all" transform="translate(658.74, 25)"><rect class="bg" shape-rendering="crispEdges" style="stroke: rgb(68, 68, 68); stroke-opacity: 1; fill: rgb(255, 255, 255); fill-opacity: 1; stroke-width: 0px;" width="63" height="124" x="0" y="0"></rect><g class="scrollbox" transform="translate(0, 0)" clip-path="url(#legend4e65f4)"><g class="groups" transform="translate(0, 0)"><g class="traces" transform="translate(0, 14.5)" style="opacity: 1;"><g class="layers" style="opacity: 1;"><g class="legendfill"></g><g class="legendlines"></g><g class="legendsymbols"><g class="legendpoints"><path class="scatterpts" transform="translate(20,0)" d="M5,0A5,5 0 1,1 0,-5A5,5 0 0,1 5,0Z" style="opacity: 1; stroke-width: 0px; fill: rgb(216, 179, 101); fill-opacity: 1;"></path></g></g></g><text class="legendtext user-select-none" text-anchor="start" x="40" y="4.680000000000001" data-unformatted="1" data-math="N" style="font-family: &quot;Open Sans&quot;, verdana, arial, sans-serif; font-size: 12px; fill: rgb(68, 68, 68); fill-opacity: 1; white-space: pre;">1</text><rect class="legendtoggle" pointer-events="all" style="cursor: pointer; fill: rgb(0, 0, 0); fill-opacity: 0;" x="0" y="-9.5" width="103" height="19"></rect></g><g class="traces" transform="translate(0, 33.5)" style="opacity: 1;"><g class="layers" style="opacity: 1;"><g class="legendfill"></g><g class="legendlines"></g><g class="legendsymbols"><g class="legendpoints"><path class="scatterpts" transform="translate(20,0)" d="M5,0A5,5 0 1,1 0,-5A5,5 0 0,1 5,0Z" style="opacity: 1; stroke-width: 0px; fill: rgb(178, 223, 138); fill-opacity: 1;"></path></g></g></g><text class="legendtext user-select-none" text-anchor="start" x="40" y="4.680000000000001" data-unformatted="2" data-math="N" style="font-family: &quot;Open Sans&quot;, verdana, arial, sans-serif; font-size: 12px; fill: rgb(68, 68, 68); fill-opacity: 1; white-space: pre;">2</text><rect class="legendtoggle" pointer-events="all" style="cursor: pointer; fill: rgb(0, 0, 0); fill-opacity: 0;" x="0" y="-9.5" width="103" height="19"></rect></g><g class="traces" transform="translate(0, 52.5)" style="opacity: 1;"><g class="layers" style="opacity: 1;"><g class="legendfill"></g><g class="legendlines"></g><g class="legendsymbols"><g class="legendpoints"><path class="scatterpts" transform="translate(20,0)" d="M5,0A5,5 0 1,1 0,-5A5,5 0 0,1 5,0Z" style="opacity: 1; stroke-width: 0px; fill: rgb(51, 160, 44); fill-opacity: 1;"></path></g></g></g><text class="legendtext user-select-none" text-anchor="start" x="40" y="4.680000000000001" data-unformatted="3" data-math="N" style="font-family: &quot;Open Sans&quot;, verdana, arial, sans-serif; font-size: 12px; fill: rgb(68, 68, 68); fill-opacity: 1; white-space: pre;">3</text><rect class="legendtoggle" pointer-events="all" style="cursor: pointer; fill: rgb(0, 0, 0); fill-opacity: 0;" x="0" y="-9.5" width="103" height="19"></rect></g><g class="traces" transform="translate(0, 71.5)" style="opacity: 1;"><g class="layers" style="opacity: 1;"><g class="legendfill"></g><g class="legendlines"></g><g class="legendsymbols"><g class="legendpoints"><path class="scatterpts" transform="translate(20,0)" d="M5,0A5,5 0 1,1 0,-5A5,5 0 0,1 5,0Z" style="opacity: 1; stroke-width: 0px; fill: rgb(251, 154, 153); fill-opacity: 1;"></path></g></g></g><text class="legendtext user-select-none" text-anchor="start" x="40" y="4.680000000000001" data-unformatted="4" data-math="N" style="font-family: &quot;Open Sans&quot;, verdana, arial, sans-serif; font-size: 12px; fill: rgb(68, 68, 68); fill-opacity: 1; white-space: pre;">4</text><rect class="legendtoggle" pointer-events="all" style="cursor: pointer; fill: rgb(0, 0, 0); fill-opacity: 0;" x="0" y="-9.5" width="103" height="19"></rect></g><g class="traces" transform="translate(0, 90.5)" style="opacity: 1;"><g class="layers" style="opacity: 1;"><g class="legendfill"></g><g class="legendlines"></g><g class="legendsymbols"><g class="legendpoints"><path class="scatterpts" transform="translate(20,0)" d="M5,0A5,5 0 1,1 0,-5A5,5 0 0,1 5,0Z" style="opacity: 1; stroke-width: 0px; fill: rgb(227, 26, 28); fill-opacity: 1;"></path></g></g></g><text class="legendtext user-select-none" text-anchor="start" x="40" y="4.680000000000001" data-unformatted="5" data-math="N" style="font-family: &quot;Open Sans&quot;, verdana, arial, sans-serif; font-size: 12px; fill: rgb(68, 68, 68); fill-opacity: 1; white-space: pre;">5</text><rect class="legendtoggle" pointer-events="all" x="0" y="-9.5" width="103" height="19" style="cursor: pointer; fill: rgb(0, 0, 0); fill-opacity: 0;"></rect></g><g class="traces" transform="translate(0, 109.5)" style="opacity: 1;"><g class="layers" style="opacity: 1;"><g class="legendfill"></g><g class="legendlines"></g><g class="legendsymbols"><g class="legendpoints"><path class="scatterpts" transform="translate(20,0)" d="M5,0A5,5 0 1,1 0,-5A5,5 0 0,1 5,0Z" style="opacity: 1; stroke-width: 0px; fill: rgb(192, 192, 192); fill-opacity: 1;"></path></g></g></g><text class="legendtext user-select-none" text-anchor="start" x="40" y="4.680000000000001" data-unformatted="NA" data-math="N" style="font-family: &quot;Open Sans&quot;, verdana, arial, sans-serif; font-size: 12px; fill: rgb(68, 68, 68); fill-opacity: 1; white-space: pre;">NA</text><rect class="legendtoggle" pointer-events="all" x="0" y="-9.5" width="103" height="19" style="cursor: pointer; fill: rgb(0, 0, 0); fill-opacity: 0;"></rect></g></g></g><rect class="scrollbar" rx="20" ry="3" width="0" height="0" style="fill: rgb(128, 139, 164); fill-opacity: 1;" x="0" y="0"></rect></g><g class="g-gtitle"></g><g class="g-xtitle" transform="translate(0,-15)"><text class="xtitle" x="353.5" y="462" text-anchor="middle" data-unformatted="PC1 (13.9%)" data-math="N" style="font-family: &quot;Open Sans&quot;, verdana, arial, sans-serif; font-size: 14px; fill: rgb(68, 68, 68); opacity: 1; font-weight: normal; white-space: pre;">PC1 (13.9%)</text></g><g class="g-ytitle"><text class="ytitle" transform="rotate(-90,22,217.5)" x="22" y="217.5" text-anchor="middle" data-unformatted="PC2 (11.1%)" data-math="N" style="font-family: &quot;Open Sans&quot;, verdana, arial, sans-serif; font-size: 14px; fill: rgb(68, 68, 68); opacity: 1; font-weight: normal; white-space: pre;">PC2 (11.1%)</text></g></g><g class="menulayer"></g><g class="zoomlayer"></g><g class="hoverlayer"></g></svg>