<?xml version="1.0" standalone="no"?>
<svg class="main-svg" xmlns="http://www.w3.org/2000/svg" xmlns:xlink="http://www.w3.org/1999/xlink" width="732" height="450" style="background: rgb(255, 255, 255);"><defs id="defs-dd0488"><g class="clips"><clipPath id="clipdd0488xyplot" class="plotclip"><rect width="308" height="385"></rect></clipPath><clipPath class="axesclip" id="clipdd0488x"><rect x="60" y="0" width="308" height="450"></rect></clipPath><clipPath class="axesclip" id="clipdd0488y"><rect x="0" y="25" width="732" height="385"></rect></clipPath><clipPath class="axesclip" id="clipdd0488xy"><rect x="60" y="25" width="308" height="385"></rect></clipPath></g><g class="gradients"></g></defs><g class="bglayer"><rect class="bg" x="60" y="25" width="308" height="385" style="fill: rgb(255, 255, 255); fill-opacity: 1; stroke-width: 0;"></rect></g><g class="draglayer cursor-crosshair"><g class="xy"></g></g><g class="layer-below"><g class="imagelayer"></g><g class="shapelayer"></g></g><g class="cartesianlayer"><g class="subplot xy"><g class="layer-subplot"><g class="shapelayer"></g><g class="imagelayer"></g></g><g class="gridlayer"><g class="x"><path class="xgrid crisp" d="M0,25v385" transform="translate(111.42,0)" style="stroke: rgb(238, 238, 238); stroke-opacity: 1; stroke-width: 1px;"></path><path class="xgrid crisp" d="M0,25v385" transform="translate(177.14,0)" style="stroke: rgb(238, 238, 238); stroke-opacity: 1; stroke-width: 1px;"></path><path class="xgrid crisp" d="M0,25v385" transform="translate(242.85,0)" style="stroke: rgb(238, 238, 238); stroke-opacity: 1; stroke-width: 1px;"></path><path class="xgrid crisp" d="M0,25v385" transform="translate(308.57,0)" style="stroke: rgb(238, 238, 238); stroke-opacity: 1; stroke-width: 1px;"></path></g><g class="y"><path class="ygrid crisp" d="M60,0h308" transform="translate(0,404.66)" style="stroke: rgb(238, 238, 238); stroke-opacity: 1; stroke-width: 1px;"></path><path class="ygrid crisp" d="M60,0h308" transform="translate(0,347.75)" style="stroke: rgb(238, 238, 238); stroke-opacity: 1; stroke-width: 1px;"></path><path class="ygrid crisp" d="M60,0h308" transform="translate(0,290.84)" style="stroke: rgb(238, 238, 238); stroke-opacity: 1; stroke-width: 1px;"></path><path class="ygrid crisp" d="M60,0h308" transform="translate(0,233.93)" style="stroke: rgb(238, 238, 238); stroke-opacity: 1; stroke-width: 1px;"></path><path class="ygrid crisp" d="M60,0h308" transform="translate(0,177.02)" style="stroke: rgb(238, 238, 238); stroke-opacity: 1; stroke-width: 1px;"></path><path class="ygrid crisp" d="M60,0h308" transform="translate(0,120.11)" style="stroke: rgb(238, 238, 238); stroke-opacity: 1; stroke-width: 1px;"></path><path class="ygrid crisp" d="M60,0h308" transform="translate(0,63.2)" style="stroke: rgb(238, 238, 238); stroke-opacity: 1; stroke-width: 1px;"></path></g></g><g class="zerolinelayer"></g><path class="xlines-below"></path><path class="ylines-below"></path><g class="overlines-below"></g><g class="xaxislayer-below"></g><g class="yaxislayer-below"></g><g class="overaxes-below"></g><g class="plot" transform="translate(60, 25)" clip-path="url(#clipdd0488xyplot)"><g class="scatterlayer mlayer"><g class="trace scatter trace64263f" style="stroke-miterlimit: 2; opacity: 1;"><g class="fills"></g><g class="errorbars"></g><g class="lines"></g><g class="points"><path class="point" transform="translate(165.8,283.76)" d="M6,0A6,6 0 1,1 0,-6A6,6 0 0,1 6,0Z" style="opacity: 1; stroke-width: 0px; fill: rgb(178, 223, 138); fill-opacity: 1;"></path><path class="point" transform="translate(178.72,280.44)" d="M6,0A6,6 0 1,1 0,-6A6,6 0 0,1 6,0Z" style="opacity: 1; stroke-width: 0px; fill: rgb(178, 223, 138); fill-opacity: 1;"></path><path class="point" transform="translate(161.22,291.78)" d="M6,0A6,6 0 1,1 0,-6A6,6 0 0,1 6,0Z" style="opacity: 1; stroke-width: 0px; fill: rgb(31, 120, 180); fill-opacity: 1;"></path><path class="point" transform="translate(178.96,295.63)" d="M6,0A6,6 0 1,1 0,-6A6,6 0 0,1 6,0Z" style="opacity: 1; stroke-width: 0px; fill: rgb(31, 120, 180); fill-opacity: 1;"></path><path class="point" transform="translate(184.14,260.63)" d="M6,0A6,6 0 1,1 0,-6A6,6 0 0,1 6,0Z" style="opacity: 1; stroke-width: 0px; fill: rgb(31, 120, 180); fill-opacity: 1;"></path><path class="point" transform="translate(188.83,275.37)" d="M6,0A6,6 0 1,1 0,-6A6,6 0 0,1 6,0Z" style="opacity: 1; stroke-width: 0px; fill: rgb(31, 120, 180); fill-opacity: 1;"></path><path class="point" transform="translate(171.15,283.37)" d="M6,0A6,6 0 1,1 0,-6A6,6 0 0,1 6,0Z" style="opacity: 1; stroke-width: 0px; fill: rgb(31, 120, 180); fill-opacity: 1;"></path><path class="point" transform="translate(196.03,272.45)" d="M6,0A6,6 0 1,1 0,-6A6,6 0 0,1 6,0Z" style="opacity: 1; stroke-width: 0px; fill: rgb(31, 120, 180); fill-opacity: 1;"></path><path class="point" transform="translate(165.67,281.77)" d="M6,0A6,6 0 1,1 0,-6A6,6 0 0,1 6,0Z" style="opacity: 1; stroke-width: 0px; fill: rgb(178, 223, 138); fill-opacity: 1;"></path><path class="point" transform="translate(151.52,270.96)" d="M6,0A6,6 0 1,1 0,-6A6,6 0 0,1 6,0Z" style="opacity: 1; stroke-width: 0px; fill: rgb(178, 223, 138); fill-opacity: 1;"></path><path class="point" transform="translate(167.24,237.25)" d="M6,0A6,6 0 1,1 0,-6A6,6 0 0,1 6,0Z" style="opacity: 1; stroke-width: 0px; fill: rgb(31, 120, 180); fill-opacity: 1;"></path><path class="point" transform="translate(175.87,268.94)" d="M6,0A6,6 0 1,1 0,-6A6,6 0 0,1 6,0Z" style="opacity: 1; stroke-width: 0px; fill: rgb(31, 120, 180); fill-opacity: 1;"></path><path class="point" transform="translate(175.71,239.55)" d="M6,0A6,6 0 1,1 0,-6A6,6 0 0,1 6,0Z" style="opacity: 1; stroke-width: 0px; fill: rgb(251, 154, 153); fill-opacity: 1;"></path><path class="point" transform="translate(205.33,262.72)" d="M6,0A6,6 0 1,1 0,-6A6,6 0 0,1 6,0Z" style="opacity: 1; stroke-width: 0px; fill: rgb(31, 120, 180); fill-opacity: 1;"></path><path class="point" transform="translate(205.02,252.78)" d="M6,0A6,6 0 1,1 0,-6A6,6 0 0,1 6,0Z" style="opacity: 1; stroke-width: 0px; fill: rgb(31, 120, 180); fill-opacity: 1;"></path><path class="point" transform="translate(167.75,298.04)" d="M6,0A6,6 0 1,1 0,-6A6,6 0 0,1 6,0Z" style="opacity: 1; stroke-width: 0px; fill: rgb(31, 120, 180); fill-opacity: 1;"></path><path class="point" transform="translate(107.3,194.12)" d="M6,0A6,6 0 1,1 0,-6A6,6 0 0,1 6,0Z" style="opacity: 1; stroke-width: 0px; fill: rgb(31, 120, 180); fill-opacity: 1;"></path><path class="point" transform="translate(154.44,325.51)" d="M6,0A6,6 0 1,1 0,-6A6,6 0 0,1 6,0Z" style="opacity: 1; stroke-width: 0px; fill: rgb(31, 120, 180); fill-opacity: 1;"></path><path class="point" transform="translate(158.42,294.97)" d="M6,0A6,6 0 1,1 0,-6A6,6 0 0,1 6,0Z" style="opacity: 1; stroke-width: 0px; fill: rgb(31, 120, 180); fill-opacity: 1;"></path><path class="point" transform="translate(182.58,286.2)" d="M6,0A6,6 0 1,1 0,-6A6,6 0 0,1 6,0Z" style="opacity: 1; stroke-width: 0px; fill: rgb(31, 120, 180); fill-opacity: 1;"></path><path class="point" transform="translate(161.21,312.48)" d="M6,0A6,6 0 1,1 0,-6A6,6 0 0,1 6,0Z" style="opacity: 1; stroke-width: 0px; fill: rgb(31, 120, 180); fill-opacity: 1;"></path><path class="point" transform="translate(126.26,238.02)" d="M6,0A6,6 0 1,1 0,-6A6,6 0 0,1 6,0Z" style="opacity: 1; stroke-width: 0px; fill: rgb(31, 120, 180); fill-opacity: 1;"></path><path class="point" transform="translate(160.65,68.16)" d="M6,0A6,6 0 1,1 0,-6A6,6 0 0,1 6,0Z" style="opacity: 1; stroke-width: 0px; fill: rgb(178, 223, 138); fill-opacity: 1;"></path><path class="point" transform="translate(131.03,208.79)" d="M6,0A6,6 0 1,1 0,-6A6,6 0 0,1 6,0Z" style="opacity: 1; stroke-width: 0px; fill: rgb(31, 120, 180); fill-opacity: 1;"></path><path class="point" transform="translate(186.13,269.76)" d="M6,0A6,6 0 1,1 0,-6A6,6 0 0,1 6,0Z" style="opacity: 1; stroke-width: 0px; fill: rgb(31, 120, 180); fill-opacity: 1;"></path><path class="point" transform="translate(161.95,239.45)" d="M6,0A6,6 0 1,1 0,-6A6,6 0 0,1 6,0Z" style="opacity: 1; stroke-width: 0px; fill: rgb(31, 120, 180); fill-opacity: 1;"></path><path class="point" transform="translate(180.82,298.89)" d="M6,0A6,6 0 1,1 0,-6A6,6 0 0,1 6,0Z" style="opacity: 1; stroke-width: 0px; fill: rgb(31, 120, 180); fill-opacity: 1;"></path><path class="point" transform="translate(161.01,286.84)" d="M6,0A6,6 0 1,1 0,-6A6,6 0 0,1 6,0Z" style="opacity: 1; stroke-width: 0px; fill: rgb(31, 120, 180); fill-opacity: 1;"></path><path class="point" transform="translate(163.95,287.16)" d="M6,0A6,6 0 1,1 0,-6A6,6 0 0,1 6,0Z" style="opacity: 1; stroke-width: 0px; fill: rgb(31, 120, 180); fill-opacity: 1;"></path><path class="point" transform="translate(144.05,44.42)" d="M6,0A6,6 0 1,1 0,-6A6,6 0 0,1 6,0Z" style="opacity: 1; stroke-width: 0px; fill: rgb(178, 223, 138); fill-opacity: 1;"></path><path class="point" transform="translate(189.25,71.48)" d="M6,0A6,6 0 1,1 0,-6A6,6 0 0,1 6,0Z" style="opacity: 1; stroke-width: 0px; fill: rgb(178, 223, 138); fill-opacity: 1;"></path><path class="point" transform="translate(188.38,76.15)" d="M6,0A6,6 0 1,1 0,-6A6,6 0 0,1 6,0Z" style="opacity: 1; stroke-width: 0px; fill: rgb(178, 223, 138); fill-opacity: 1;"></path><path class="point" transform="translate(195.61,77.17)" d="M6,0A6,6 0 1,1 0,-6A6,6 0 0,1 6,0Z" style="opacity: 1; stroke-width: 0px; fill: rgb(178, 223, 138); fill-opacity: 1;"></path><path class="point" transform="translate(177.14,76.81)" d="M6,0A6,6 0 1,1 0,-6A6,6 0 0,1 6,0Z" style="opacity: 1; stroke-width: 0px; fill: rgb(178, 223, 138); fill-opacity: 1;"></path><path class="point" transform="translate(195.63,56.95)" d="M6,0A6,6 0 1,1 0,-6A6,6 0 0,1 6,0Z" style="opacity: 1; stroke-width: 0px; fill: rgb(178, 223, 138); fill-opacity: 1;"></path><path class="point" transform="translate(171.25,300.46)" d="M6,0A6,6 0 1,1 0,-6A6,6 0 0,1 6,0Z" style="opacity: 1; stroke-width: 0px; fill: rgb(31, 120, 180); fill-opacity: 1;"></path><path class="point" transform="translate(205.9,105.2)" d="M6,0A6,6 0 1,1 0,-6A6,6 0 0,1 6,0Z" style="opacity: 1; stroke-width: 0px; fill: rgb(178, 223, 138); fill-opacity: 1;"></path><path class="point" transform="translate(220.01,252.72)" d="M6,0A6,6 0 1,1 0,-6A6,6 0 0,1 6,0Z" style="opacity: 1; stroke-width: 0px; fill: rgb(31, 120, 180); fill-opacity: 1;"></path><path class="point" transform="translate(165.96,320.53)" d="M6,0A6,6 0 1,1 0,-6A6,6 0 0,1 6,0Z" style="opacity: 1; stroke-width: 0px; fill: rgb(31, 120, 180); fill-opacity: 1;"></path><path class="point" transform="translate(157.43,299.59)" d="M6,0A6,6 0 1,1 0,-6A6,6 0 0,1 6,0Z" style="opacity: 1; stroke-width: 0px; fill: rgb(31, 120, 180); fill-opacity: 1;"></path><path class="point" transform="translate(179.85,248.33)" d="M6,0A6,6 0 1,1 0,-6A6,6 0 0,1 6,0Z" style="opacity: 1; stroke-width: 0px; fill: rgb(31, 120, 180); fill-opacity: 1;"></path><path class="point" transform="translate(180.79,276.52)" d="M6,0A6,6 0 1,1 0,-6A6,6 0 0,1 6,0Z" style="opacity: 1; stroke-width: 0px; fill: rgb(31, 120, 180); fill-opacity: 1;"></path><path class="point" transform="translate(187.75,334.27)" d="M6,0A6,6 0 1,1 0,-6A6,6 0 0,1 6,0Z" style="opacity: 1; stroke-width: 0px; fill: rgb(178, 223, 138); fill-opacity: 1;"></path><path class="point" transform="translate(184.22,177.43)" d="M6,0A6,6 0 1,1 0,-6A6,6 0 0,1 6,0Z" style="opacity: 1; stroke-width: 0px; fill: rgb(31, 120, 180); fill-opacity: 1;"></path><path class="point" transform="translate(245.94,269.23)" d="M6,0A6,6 0 1,1 0,-6A6,6 0 0,1 6,0Z" style="opacity: 1; stroke-width: 0px; fill: rgb(31, 120, 180); fill-opacity: 1;"></path><path class="point" transform="translate(237.19,262.49)" d="M6,0A6,6 0 1,1 0,-6A6,6 0 0,1 6,0Z" style="opacity: 1; stroke-width: 0px; fill: rgb(31, 120, 180); fill-opacity: 1;"></path><path class="point" transform="translate(169.45,315.18)" d="M6,0A6,6 0 1,1 0,-6A6,6 0 0,1 6,0Z" style="opacity: 1; stroke-width: 0px; fill: rgb(31, 120, 180); fill-opacity: 1;"></path><path class="point" transform="translate(188.78,257.42)" d="M6,0A6,6 0 1,1 0,-6A6,6 0 0,1 6,0Z" style="opacity: 1; stroke-width: 0px; fill: rgb(31, 120, 180); fill-opacity: 1;"></path><path class="point" transform="translate(187.32,302.28)" d="M6,0A6,6 0 1,1 0,-6A6,6 0 0,1 6,0Z" style="opacity: 1; stroke-width: 0px; fill: rgb(31, 120, 180); fill-opacity: 1;"></path><path class="point" transform="translate(165.91,316.23)" d="M6,0A6,6 0 1,1 0,-6A6,6 0 0,1 6,0Z" style="opacity: 1; stroke-width: 0px; fill: rgb(31, 120, 180); fill-opacity: 1;"></path><path class="point" transform="translate(191.51,243.81)" d="M6,0A6,6 0 1,1 0,-6A6,6 0 0,1 6,0Z" style="opacity: 1; stroke-width: 0px; fill: rgb(31, 120, 180); fill-opacity: 1;"></path><path class="point" transform="translate(210.8,249.21)" d="M6,0A6,6 0 1,1 0,-6A6,6 0 0,1 6,0Z" style="opacity: 1; stroke-width: 0px; fill: rgb(31, 120, 180); fill-opacity: 1;"></path><path class="point" transform="translate(165.07,291.03)" d="M6,0A6,6 0 1,1 0,-6A6,6 0 0,1 6,0Z" style="opacity: 1; stroke-width: 0px; fill: rgb(31, 120, 180); fill-opacity: 1;"></path><path class="point" transform="translate(125.26,251.13)" d="M6,0A6,6 0 1,1 0,-6A6,6 0 0,1 6,0Z" style="opacity: 1; stroke-width: 0px; fill: rgb(31, 120, 180); fill-opacity: 1;"></path><path class="point" transform="translate(160.1,273.53)" d="M6,0A6,6 0 1,1 0,-6A6,6 0 0,1 6,0Z" style="opacity: 1; stroke-width: 0px; fill: rgb(31, 120, 180); fill-opacity: 1;"></path><path class="point" transform="translate(194.74,271.47)" d="M6,0A6,6 0 1,1 0,-6A6,6 0 0,1 6,0Z" style="opacity: 1; stroke-width: 0px; fill: rgb(51, 160, 44); fill-opacity: 1;"></path><path class="point" transform="translate(123.87,267.34)" d="M6,0A6,6 0 1,1 0,-6A6,6 0 0,1 6,0Z" style="opacity: 1; stroke-width: 0px; fill: rgb(31, 120, 180); fill-opacity: 1;"></path><path class="point" transform="translate(160.5,308.2)" d="M6,0A6,6 0 1,1 0,-6A6,6 0 0,1 6,0Z" style="opacity: 1; stroke-width: 0px; fill: rgb(31, 120, 180); fill-opacity: 1;"></path><path class="point" transform="translate(195.47,245.22)" d="M6,0A6,6 0 1,1 0,-6A6,6 0 0,1 6,0Z" style="opacity: 1; stroke-width: 0px; fill: rgb(31, 120, 180); fill-opacity: 1;"></path><path class="point" transform="translate(145.55,319.65)" d="M6,0A6,6 0 1,1 0,-6A6,6 0 0,1 6,0Z" style="opacity: 1; stroke-width: 0px; fill: rgb(31, 120, 180); fill-opacity: 1;"></path><path class="point" transform="translate(157.92,254.63)" d="M6,0A6,6 0 1,1 0,-6A6,6 0 0,1 6,0Z" style="opacity: 1; stroke-width: 0px; fill: rgb(31, 120, 180); fill-opacity: 1;"></path><path class="point" transform="translate(186.12,291.37)" d="M6,0A6,6 0 1,1 0,-6A6,6 0 0,1 6,0Z" style="opacity: 1; stroke-width: 0px; fill: rgb(31, 120, 180); fill-opacity: 1;"></path><path class="point" transform="translate(136.02,307.57)" d="M6,0A6,6 0 1,1 0,-6A6,6 0 0,1 6,0Z" style="opacity: 1; stroke-width: 0px; fill: rgb(31, 120, 180); fill-opacity: 1;"></path><path class="point" transform="translate(157.53,271.98)" d="M6,0A6,6 0 1,1 0,-6A6,6 0 0,1 6,0Z" style="opacity: 1; stroke-width: 0px; fill: rgb(31, 120, 180); fill-opacity: 1;"></path><path class="point" transform="translate(160.63,278.03)" d="M6,0A6,6 0 1,1 0,-6A6,6 0 0,1 6,0Z" style="opacity: 1; stroke-width: 0px; fill: rgb(31, 120, 180); fill-opacity: 1;"></path><path class="point" transform="translate(136.61,279.54)" d="M6,0A6,6 0 1,1 0,-6A6,6 0 0,1 6,0Z" style="opacity: 1; stroke-width: 0px; fill: rgb(31, 120, 180); fill-opacity: 1;"></path><path class="point" transform="translate(140.21,282.65)" d="M6,0A6,6 0 1,1 0,-6A6,6 0 0,1 6,0Z" style="opacity: 1; stroke-width: 0px; fill: rgb(31, 120, 180); fill-opacity: 1;"></path><path class="point" transform="translate(228.58,254.22)" d="M6,0A6,6 0 1,1 0,-6A6,6 0 0,1 6,0Z" style="opacity: 1; stroke-width: 0px; fill: rgb(31, 120, 180); fill-opacity: 1;"></path><path class="point" transform="translate(192.53,295.04)" d="M6,0A6,6 0 1,1 0,-6A6,6 0 0,1 6,0Z" style="opacity: 1; stroke-width: 0px; fill: rgb(31, 120, 180); fill-opacity: 1;"></path><path class="point" transform="translate(224,203.11)" d="M6,0A6,6 0 1,1 0,-6A6,6 0 0,1 6,0Z" style="opacity: 1; stroke-width: 0px; fill: rgb(178, 223, 138); fill-opacity: 1;"></path><path class="point" transform="translate(197.77,246.33)" d="M6,0A6,6 0 1,1 0,-6A6,6 0 0,1 6,0Z" style="opacity: 1; stroke-width: 0px; fill: rgb(178, 223, 138); fill-opacity: 1;"></path><path class="point" transform="translate(173.04,277.73)" d="M6,0A6,6 0 1,1 0,-6A6,6 0 0,1 6,0Z" style="opacity: 1; stroke-width: 0px; fill: rgb(178, 223, 138); fill-opacity: 1;"></path><path class="point" transform="translate(189.06,244.79)" d="M6,0A6,6 0 1,1 0,-6A6,6 0 0,1 6,0Z" style="opacity: 1; stroke-width: 0px; fill: rgb(31, 120, 180); fill-opacity: 1;"></path><path class="point" transform="translate(155.49,306.27)" d="M6,0A6,6 0 1,1 0,-6A6,6 0 0,1 6,0Z" style="opacity: 1; stroke-width: 0px; fill: rgb(31, 120, 180); fill-opacity: 1;"></path><path class="point" transform="translate(172.93,275.89)" d="M6,0A6,6 0 1,1 0,-6A6,6 0 0,1 6,0Z" style="opacity: 1; stroke-width: 0px; fill: rgb(31, 120, 180); fill-opacity: 1;"></path><path class="point" transform="translate(190.08,246.6)" d="M6,0A6,6 0 1,1 0,-6A6,6 0 0,1 6,0Z" style="opacity: 1; stroke-width: 0px; fill: rgb(31, 120, 180); fill-opacity: 1;"></path><path class="point" transform="translate(155.77,290.91)" d="M6,0A6,6 0 1,1 0,-6A6,6 0 0,1 6,0Z" style="opacity: 1; stroke-width: 0px; fill: rgb(31, 120, 180); fill-opacity: 1;"></path><path class="point" transform="translate(95.32,270.65)" d="M6,0A6,6 0 1,1 0,-6A6,6 0 0,1 6,0Z" style="opacity: 1; stroke-width: 0px; fill: rgb(31, 120, 180); fill-opacity: 1;"></path><path class="point" transform="translate(35.54,196.81)" d="M6,0A6,6 0 1,1 0,-6A6,6 0 0,1 6,0Z" style="opacity: 1; stroke-width: 0px; fill: rgb(178, 223, 138); fill-opacity: 1;"></path><path class="point" transform="translate(186.92,263.31)" d="M6,0A6,6 0 1,1 0,-6A6,6 0 0,1 6,0Z" style="opacity: 1; stroke-width: 0px; fill: rgb(31, 120, 180); fill-opacity: 1;"></path><path class="point" transform="translate(150.73,299.11)" d="M6,0A6,6 0 1,1 0,-6A6,6 0 0,1 6,0Z" style="opacity: 1; stroke-width: 0px; fill: rgb(31, 120, 180); fill-opacity: 1;"></path><path class="point" transform="translate(126.1,302.67)" d="M6,0A6,6 0 1,1 0,-6A6,6 0 0,1 6,0Z" style="opacity: 1; stroke-width: 0px; fill: rgb(178, 223, 138); fill-opacity: 1;"></path><path class="point" transform="translate(240.3,287.2)" d="M6,0A6,6 0 1,1 0,-6A6,6 0 0,1 6,0Z" style="opacity: 1; stroke-width: 0px; fill: rgb(31, 120, 180); fill-opacity: 1;"></path><path class="point" transform="translate(210.03,326.09)" d="M6,0A6,6 0 1,1 0,-6A6,6 0 0,1 6,0Z" style="opacity: 1; stroke-width: 0px; fill: rgb(31, 120, 180); fill-opacity: 1;"></path><path class="point" transform="translate(247.21,219.41)" d="M6,0A6,6 0 1,1 0,-6A6,6 0 0,1 6,0Z" style="opacity: 1; stroke-width: 0px; fill: rgb(31, 120, 180); fill-opacity: 1;"></path><path class="point" transform="translate(225.92,322.38)" d="M6,0A6,6 0 1,1 0,-6A6,6 0 0,1 6,0Z" style="opacity: 1; stroke-width: 0px; fill: rgb(31, 120, 180); fill-opacity: 1;"></path><path class="point" transform="translate(244.39,237.95)" d="M6,0A6,6 0 1,1 0,-6A6,6 0 0,1 6,0Z" style="opacity: 1; stroke-width: 0px; fill: rgb(31, 120, 180); fill-opacity: 1;"></path><path class="point" transform="translate(212.47,289.79)" d="M6,0A6,6 0 1,1 0,-6A6,6 0 0,1 6,0Z" style="opacity: 1; stroke-width: 0px; fill: rgb(31, 120, 180); fill-opacity: 1;"></path><path class="point" transform="translate(214.86,311.33)" d="M6,0A6,6 0 1,1 0,-6A6,6 0 0,1 6,0Z" style="opacity: 1; stroke-width: 0px; fill: rgb(31, 120, 180); fill-opacity: 1;"></path><path class="point" transform="translate(210.33,312.29)" d="M6,0A6,6 0 1,1 0,-6A6,6 0 0,1 6,0Z" style="opacity: 1; stroke-width: 0px; fill: rgb(31, 120, 180); fill-opacity: 1;"></path><path class="point" transform="translate(184.22,231.83)" d="M6,0A6,6 0 1,1 0,-6A6,6 0 0,1 6,0Z" style="opacity: 1; stroke-width: 0px; fill: rgb(31, 120, 180); fill-opacity: 1;"></path><path class="point" transform="translate(247.38,267.76)" d="M6,0A6,6 0 1,1 0,-6A6,6 0 0,1 6,0Z" style="opacity: 1; stroke-width: 0px; fill: rgb(31, 120, 180); fill-opacity: 1;"></path><path class="point" transform="translate(239.45,259.57)" d="M6,0A6,6 0 1,1 0,-6A6,6 0 0,1 6,0Z" style="opacity: 1; stroke-width: 0px; fill: rgb(31, 120, 180); fill-opacity: 1;"></path><path class="point" transform="translate(186.42,317.81)" d="M6,0A6,6 0 1,1 0,-6A6,6 0 0,1 6,0Z" style="opacity: 1; stroke-width: 0px; fill: rgb(31, 120, 180); fill-opacity: 1;"></path><path class="point" transform="translate(219.8,297.6)" d="M6,0A6,6 0 1,1 0,-6A6,6 0 0,1 6,0Z" style="opacity: 1; stroke-width: 0px; fill: rgb(31, 120, 180); fill-opacity: 1;"></path><path class="point" transform="translate(213.73,277.68)" d="M6,0A6,6 0 1,1 0,-6A6,6 0 0,1 6,0Z" style="opacity: 1; stroke-width: 0px; fill: rgb(31, 120, 180); fill-opacity: 1;"></path><path class="point" transform="translate(233.27,207.18)" d="M6,0A6,6 0 1,1 0,-6A6,6 0 0,1 6,0Z" style="opacity: 1; stroke-width: 0px; fill: rgb(178, 223, 138); fill-opacity: 1;"></path><path class="point" transform="translate(219.03,303.29)" d="M6,0A6,6 0 1,1 0,-6A6,6 0 0,1 6,0Z" style="opacity: 1; stroke-width: 0px; fill: rgb(31, 120, 180); fill-opacity: 1;"></path><path class="point" transform="translate(225.6,264.11)" d="M6,0A6,6 0 1,1 0,-6A6,6 0 0,1 6,0Z" style="opacity: 1; stroke-width: 0px; fill: rgb(31, 120, 180); fill-opacity: 1;"></path><path class="point" transform="translate(206.57,281.71)" d="M6,0A6,6 0 1,1 0,-6A6,6 0 0,1 6,0Z" style="opacity: 1; stroke-width: 0px; fill: rgb(51, 160, 44); fill-opacity: 1;"></path><path class="point" transform="translate(202.19,257.81)" d="M6,0A6,6 0 1,1 0,-6A6,6 0 0,1 6,0Z" style="opacity: 1; stroke-width: 0px; fill: rgb(31, 120, 180); fill-opacity: 1;"></path><path class="point" transform="translate(189.63,232.42)" d="M6,0A6,6 0 1,1 0,-6A6,6 0 0,1 6,0Z" style="opacity: 1; stroke-width: 0px; fill: rgb(31, 120, 180); fill-opacity: 1;"></path><path class="point" transform="translate(171.21,270.57)" d="M6,0A6,6 0 1,1 0,-6A6,6 0 0,1 6,0Z" style="opacity: 1; stroke-width: 0px; fill: rgb(31, 120, 180); fill-opacity: 1;"></path><path class="point" transform="translate(199.93,291.49)" d="M6,0A6,6 0 1,1 0,-6A6,6 0 0,1 6,0Z" style="opacity: 1; stroke-width: 0px; fill: rgb(31, 120, 180); fill-opacity: 1;"></path><path class="point" transform="translate(180.44,270.75)" d="M6,0A6,6 0 1,1 0,-6A6,6 0 0,1 6,0Z" style="opacity: 1; stroke-width: 0px; fill: rgb(178, 223, 138); fill-opacity: 1;"></path><path class="point" transform="translate(152.08,282.24)" d="M6,0A6,6 0 1,1 0,-6A6,6 0 0,1 6,0Z" style="opacity: 1; stroke-width: 0px; fill: rgb(31, 120, 180); fill-opacity: 1;"></path><path class="point" transform="translate(204.77,241.22)" d="M6,0A6,6 0 1,1 0,-6A6,6 0 0,1 6,0Z" style="opacity: 1; stroke-width: 0px; fill: rgb(178, 223, 138); fill-opacity: 1;"></path><path class="point" transform="translate(202.44,290.74)" d="M6,0A6,6 0 1,1 0,-6A6,6 0 0,1 6,0Z" style="opacity: 1; stroke-width: 0px; fill: rgb(178, 223, 138); fill-opacity: 1;"></path><path class="point" transform="translate(170.36,270.44)" d="M6,0A6,6 0 1,1 0,-6A6,6 0 0,1 6,0Z" style="opacity: 1; stroke-width: 0px; fill: rgb(31, 120, 180); fill-opacity: 1;"></path><path class="point" transform="translate(151.09,297.55)" d="M6,0A6,6 0 1,1 0,-6A6,6 0 0,1 6,0Z" style="opacity: 1; stroke-width: 0px; fill: rgb(31, 120, 180); fill-opacity: 1;"></path><path class="point" transform="translate(168.54,270.57)" d="M6,0A6,6 0 1,1 0,-6A6,6 0 0,1 6,0Z" style="opacity: 1; stroke-width: 0px; fill: rgb(178, 223, 138); fill-opacity: 1;"></path><path class="point" transform="translate(158.72,292.84)" d="M6,0A6,6 0 1,1 0,-6A6,6 0 0,1 6,0Z" style="opacity: 1; stroke-width: 0px; fill: rgb(178, 223, 138); fill-opacity: 1;"></path><path class="point" transform="translate(189.69,325.15)" d="M6,0A6,6 0 1,1 0,-6A6,6 0 0,1 6,0Z" style="opacity: 1; stroke-width: 0px; fill: rgb(31, 120, 180); fill-opacity: 1;"></path><path class="point" transform="translate(241.14,297.63)" d="M6,0A6,6 0 1,1 0,-6A6,6 0 0,1 6,0Z" style="opacity: 1; stroke-width: 0px; fill: rgb(31, 120, 180); fill-opacity: 1;"></path><path class="point" transform="translate(212.73,338.88)" d="M6,0A6,6 0 1,1 0,-6A6,6 0 0,1 6,0Z" style="opacity: 1; stroke-width: 0px; fill: rgb(31, 120, 180); fill-opacity: 1;"></path><path class="point" transform="translate(228.5,311.01)" d="M6,0A6,6 0 1,1 0,-6A6,6 0 0,1 6,0Z" style="opacity: 1; stroke-width: 0px; fill: rgb(31, 120, 180); fill-opacity: 1;"></path><path class="point" transform="translate(227.44,280.2)" d="M6,0A6,6 0 1,1 0,-6A6,6 0 0,1 6,0Z" style="opacity: 1; stroke-width: 0px; fill: rgb(31, 120, 180); fill-opacity: 1;"></path><path class="point" transform="translate(212.78,301.12)" d="M6,0A6,6 0 1,1 0,-6A6,6 0 0,1 6,0Z" style="opacity: 1; stroke-width: 0px; fill: rgb(31, 120, 180); fill-opacity: 1;"></path><path class="point" transform="translate(222.08,299.42)" d="M6,0A6,6 0 1,1 0,-6A6,6 0 0,1 6,0Z" style="opacity: 1; stroke-width: 0px; fill: rgb(31, 120, 180); fill-opacity: 1;"></path><path class="point" transform="translate(213.43,298.17)" d="M6,0A6,6 0 1,1 0,-6A6,6 0 0,1 6,0Z" style="opacity: 1; stroke-width: 0px; fill: rgb(31, 120, 180); fill-opacity: 1;"></path><path class="point" transform="translate(190.24,310.4)" d="M6,0A6,6 0 1,1 0,-6A6,6 0 0,1 6,0Z" style="opacity: 1; stroke-width: 0px; fill: rgb(31, 120, 180); fill-opacity: 1;"></path><path class="point" transform="translate(207.43,330.46)" d="M6,0A6,6 0 1,1 0,-6A6,6 0 0,1 6,0Z" style="opacity: 1; stroke-width: 0px; fill: rgb(31, 120, 180); fill-opacity: 1;"></path><path class="point" transform="translate(183.17,306.07)" d="M6,0A6,6 0 1,1 0,-6A6,6 0 0,1 6,0Z" style="opacity: 1; stroke-width: 0px; fill: rgb(31, 120, 180); fill-opacity: 1;"></path><path class="point" transform="translate(234.6,275.13)" d="M6,0A6,6 0 1,1 0,-6A6,6 0 0,1 6,0Z" style="opacity: 1; stroke-width: 0px; fill: rgb(31, 120, 180); fill-opacity: 1;"></path><path class="point" transform="translate(175.91,273.45)" d="M6,0A6,6 0 1,1 0,-6A6,6 0 0,1 6,0Z" style="opacity: 1; stroke-width: 0px; fill: rgb(31, 120, 180); fill-opacity: 1;"></path><path class="point" transform="translate(225.33,303.39)" d="M6,0A6,6 0 1,1 0,-6A6,6 0 0,1 6,0Z" style="opacity: 1; stroke-width: 0px; fill: rgb(31, 120, 180); fill-opacity: 1;"></path><path class="point" transform="translate(231.49,289.08)" d="M6,0A6,6 0 1,1 0,-6A6,6 0 0,1 6,0Z" style="opacity: 1; stroke-width: 0px; fill: rgb(31, 120, 180); fill-opacity: 1;"></path><path class="point" transform="translate(230.92,340.58)" d="M6,0A6,6 0 1,1 0,-6A6,6 0 0,1 6,0Z" style="opacity: 1; stroke-width: 0px; fill: rgb(31, 120, 180); fill-opacity: 1;"></path><path class="point" transform="translate(272.46,238.49)" d="M6,0A6,6 0 1,1 0,-6A6,6 0 0,1 6,0Z" style="opacity: 1; stroke-width: 0px; fill: rgb(31, 120, 180); fill-opacity: 1;"></path><path class="point" transform="translate(233.48,238.78)" d="M6,0A6,6 0 1,1 0,-6A6,6 0 0,1 6,0Z" style="opacity: 1; stroke-width: 0px; fill: rgb(31, 120, 180); fill-opacity: 1;"></path><path class="point" transform="translate(202.72,316.08)" d="M6,0A6,6 0 1,1 0,-6A6,6 0 0,1 6,0Z" style="opacity: 1; stroke-width: 0px; fill: rgb(31, 120, 180); fill-opacity: 1;"></path><path class="point" transform="translate(197.02,270.86)" d="M6,0A6,6 0 1,1 0,-6A6,6 0 0,1 6,0Z" style="opacity: 1; stroke-width: 0px; fill: rgb(31, 120, 180); fill-opacity: 1;"></path><path class="point" transform="translate(146.67,288.7)" d="M6,0A6,6 0 1,1 0,-6A6,6 0 0,1 6,0Z" style="opacity: 1; stroke-width: 0px; fill: rgb(31, 120, 180); fill-opacity: 1;"></path><path class="point" transform="translate(198.17,244.63)" d="M6,0A6,6 0 1,1 0,-6A6,6 0 0,1 6,0Z" style="opacity: 1; stroke-width: 0px; fill: rgb(31, 120, 180); fill-opacity: 1;"></path><path class="point" transform="translate(182.84,314.82)" d="M6,0A6,6 0 1,1 0,-6A6,6 0 0,1 6,0Z" style="opacity: 1; stroke-width: 0px; fill: rgb(31, 120, 180); fill-opacity: 1;"></path><path class="point" transform="translate(201.94,268.78)" d="M6,0A6,6 0 1,1 0,-6A6,6 0 0,1 6,0Z" style="opacity: 1; stroke-width: 0px; fill: rgb(31, 120, 180); fill-opacity: 1;"></path><path class="point" transform="translate(161.65,289.98)" d="M6,0A6,6 0 1,1 0,-6A6,6 0 0,1 6,0Z" style="opacity: 1; stroke-width: 0px; fill: rgb(31, 120, 180); fill-opacity: 1;"></path><path class="point" transform="translate(170.6,257.48)" d="M6,0A6,6 0 1,1 0,-6A6,6 0 0,1 6,0Z" style="opacity: 1; stroke-width: 0px; fill: rgb(31, 120, 180); fill-opacity: 1;"></path><path class="point" transform="translate(166.97,303.92)" d="M6,0A6,6 0 1,1 0,-6A6,6 0 0,1 6,0Z" style="opacity: 1; stroke-width: 0px; fill: rgb(31, 120, 180); fill-opacity: 1;"></path><path class="point" transform="translate(150.99,293.72)" d="M6,0A6,6 0 1,1 0,-6A6,6 0 0,1 6,0Z" style="opacity: 1; stroke-width: 0px; fill: rgb(31, 120, 180); fill-opacity: 1;"></path><path class="point" transform="translate(195.92,220.78)" d="M6,0A6,6 0 1,1 0,-6A6,6 0 0,1 6,0Z" style="opacity: 1; stroke-width: 0px; fill: rgb(31, 120, 180); fill-opacity: 1;"></path><path class="point" transform="translate(177.55,292.61)" d="M6,0A6,6 0 1,1 0,-6A6,6 0 0,1 6,0Z" style="opacity: 1; stroke-width: 0px; fill: rgb(31, 120, 180); fill-opacity: 1;"></path><path class="point" transform="translate(140.53,285.37)" d="M6,0A6,6 0 1,1 0,-6A6,6 0 0,1 6,0Z" style="opacity: 1; stroke-width: 0px; fill: rgb(31, 120, 180); fill-opacity: 1;"></path><path class="point" transform="translate(215.1,265.28)" d="M6,0A6,6 0 1,1 0,-6A6,6 0 0,1 6,0Z" style="opacity: 1; stroke-width: 0px; fill: rgb(31, 120, 180); fill-opacity: 1;"></path><path class="point" transform="translate(178.67,253.01)" d="M6,0A6,6 0 1,1 0,-6A6,6 0 0,1 6,0Z" style="opacity: 1; stroke-width: 0px; fill: rgb(31, 120, 180); fill-opacity: 1;"></path><path class="point" transform="translate(208.4,241.08)" d="M6,0A6,6 0 1,1 0,-6A6,6 0 0,1 6,0Z" style="opacity: 1; stroke-width: 0px; fill: rgb(31, 120, 180); fill-opacity: 1;"></path><path class="point" transform="translate(199.77,269.53)" d="M6,0A6,6 0 1,1 0,-6A6,6 0 0,1 6,0Z" style="opacity: 1; stroke-width: 0px; fill: rgb(31, 120, 180); fill-opacity: 1;"></path><path class="point" transform="translate(201.53,242.2)" d="M6,0A6,6 0 1,1 0,-6A6,6 0 0,1 6,0Z" style="opacity: 1; stroke-width: 0px; fill: rgb(51, 160, 44); fill-opacity: 1;"></path><path class="point" transform="translate(168.97,305.5)" d="M6,0A6,6 0 1,1 0,-6A6,6 0 0,1 6,0Z" style="opacity: 1; stroke-width: 0px; fill: rgb(31, 120, 180); fill-opacity: 1;"></path><path class="point" transform="translate(228.56,229.87)" d="M6,0A6,6 0 1,1 0,-6A6,6 0 0,1 6,0Z" style="opacity: 1; stroke-width: 0px; fill: rgb(31, 120, 180); fill-opacity: 1;"></path><path class="point" transform="translate(216.12,237.06)" d="M6,0A6,6 0 1,1 0,-6A6,6 0 0,1 6,0Z" style="opacity: 1; stroke-width: 0px; fill: rgb(31, 120, 180); fill-opacity: 1;"></path><path class="point" transform="translate(172.77,305.49)" d="M6,0A6,6 0 1,1 0,-6A6,6 0 0,1 6,0Z" style="opacity: 1; stroke-width: 0px; fill: rgb(31, 120, 180); fill-opacity: 1;"></path><path class="point" transform="translate(155.63,274.04)" d="M6,0A6,6 0 1,1 0,-6A6,6 0 0,1 6,0Z" style="opacity: 1; stroke-width: 0px; fill: rgb(31, 120, 180); fill-opacity: 1;"></path><path class="point" transform="translate(125.9,231.32)" d="M6,0A6,6 0 1,1 0,-6A6,6 0 0,1 6,0Z" style="opacity: 1; stroke-width: 0px; fill: rgb(31, 120, 180); fill-opacity: 1;"></path><path class="point" transform="translate(185.43,255.12)" d="M6,0A6,6 0 1,1 0,-6A6,6 0 0,1 6,0Z" style="opacity: 1; stroke-width: 0px; fill: rgb(31, 120, 180); fill-opacity: 1;"></path><path class="point" transform="translate(168.67,313.01)" d="M6,0A6,6 0 1,1 0,-6A6,6 0 0,1 6,0Z" style="opacity: 1; stroke-width: 0px; fill: rgb(31, 120, 180); fill-opacity: 1;"></path><path class="point" transform="translate(96.9,257.87)" d="M6,0A6,6 0 1,1 0,-6A6,6 0 0,1 6,0Z" style="opacity: 1; stroke-width: 0px; fill: rgb(31, 120, 180); fill-opacity: 1;"></path><path class="point" transform="translate(146.97,294.23)" d="M6,0A6,6 0 1,1 0,-6A6,6 0 0,1 6,0Z" style="opacity: 1; stroke-width: 0px; fill: rgb(31, 120, 180); fill-opacity: 1;"></path><path class="point" transform="translate(187.74,242.28)" d="M6,0A6,6 0 1,1 0,-6A6,6 0 0,1 6,0Z" style="opacity: 1; stroke-width: 0px; fill: rgb(31, 120, 180); fill-opacity: 1;"></path><path class="point" transform="translate(145.44,279.73)" d="M6,0A6,6 0 1,1 0,-6A6,6 0 0,1 6,0Z" style="opacity: 1; stroke-width: 0px; fill: rgb(31, 120, 180); fill-opacity: 1;"></path><path class="point" transform="translate(171.76,271.85)" d="M6,0A6,6 0 1,1 0,-6A6,6 0 0,1 6,0Z" style="opacity: 1; stroke-width: 0px; fill: rgb(178, 223, 138); fill-opacity: 1;"></path><path class="point" transform="translate(198.01,256.89)" d="M6,0A6,6 0 1,1 0,-6A6,6 0 0,1 6,0Z" style="opacity: 1; stroke-width: 0px; fill: rgb(31, 120, 180); fill-opacity: 1;"></path><path class="point" transform="translate(178.62,231.28)" d="M6,0A6,6 0 1,1 0,-6A6,6 0 0,1 6,0Z" style="opacity: 1; stroke-width: 0px; fill: rgb(31, 120, 180); fill-opacity: 1;"></path><path class="point" transform="translate(178.98,310.19)" d="M6,0A6,6 0 1,1 0,-6A6,6 0 0,1 6,0Z" style="opacity: 1; stroke-width: 0px; fill: rgb(31, 120, 180); fill-opacity: 1;"></path><path class="point" transform="translate(160.8,293.92)" d="M6,0A6,6 0 1,1 0,-6A6,6 0 0,1 6,0Z" style="opacity: 1; stroke-width: 0px; fill: rgb(31, 120, 180); fill-opacity: 1;"></path><path class="point" transform="translate(186.99,261.05)" d="M6,0A6,6 0 1,1 0,-6A6,6 0 0,1 6,0Z" style="opacity: 1; stroke-width: 0px; fill: rgb(31, 120, 180); fill-opacity: 1;"></path><path class="point" transform="translate(194.43,275.83)" d="M6,0A6,6 0 1,1 0,-6A6,6 0 0,1 6,0Z" style="opacity: 1; stroke-width: 0px; fill: rgb(31, 120, 180); fill-opacity: 1;"></path><path class="point" transform="translate(125.18,255.45)" d="M6,0A6,6 0 1,1 0,-6A6,6 0 0,1 6,0Z" style="opacity: 1; stroke-width: 0px; fill: rgb(51, 160, 44); fill-opacity: 1;"></path><path class="point" transform="translate(121.82,257.02)" d="M6,0A6,6 0 1,1 0,-6A6,6 0 0,1 6,0Z" style="opacity: 1; stroke-width: 0px; fill: rgb(31, 120, 180); fill-opacity: 1;"></path><path class="point" transform="translate(171.18,285.33)" d="M6,0A6,6 0 1,1 0,-6A6,6 0 0,1 6,0Z" style="opacity: 1; stroke-width: 0px; fill: rgb(178, 223, 138); fill-opacity: 1;"></path><path class="point" transform="translate(152.93,298.43)" d="M6,0A6,6 0 1,1 0,-6A6,6 0 0,1 6,0Z" style="opacity: 1; stroke-width: 0px; fill: rgb(31, 120, 180); fill-opacity: 1;"></path><path class="point" transform="translate(176.48,214.83)" d="M6,0A6,6 0 1,1 0,-6A6,6 0 0,1 6,0Z" style="opacity: 1; stroke-width: 0px; fill: rgb(31, 120, 180); fill-opacity: 1;"></path><path class="point" transform="translate(219.07,222.31)" d="M6,0A6,6 0 1,1 0,-6A6,6 0 0,1 6,0Z" style="opacity: 1; stroke-width: 0px; fill: rgb(31, 120, 180); fill-opacity: 1;"></path><path class="point" transform="translate(213.22,204.51)" d="M6,0A6,6 0 1,1 0,-6A6,6 0 0,1 6,0Z" style="opacity: 1; stroke-width: 0px; fill: rgb(31, 120, 180); fill-opacity: 1;"></path><path class="point" transform="translate(178.78,269.06)" d="M6,0A6,6 0 1,1 0,-6A6,6 0 0,1 6,0Z" style="opacity: 1; stroke-width: 0px; fill: rgb(31, 120, 180); fill-opacity: 1;"></path><path class="point" transform="translate(177.1,288.34)" d="M6,0A6,6 0 1,1 0,-6A6,6 0 0,1 6,0Z" style="opacity: 1; stroke-width: 0px; fill: rgb(31, 120, 180); fill-opacity: 1;"></path><path class="point" transform="translate(189.39,256.94)" d="M6,0A6,6 0 1,1 0,-6A6,6 0 0,1 6,0Z" style="opacity: 1; stroke-width: 0px; fill: rgb(31, 120, 180); fill-opacity: 1;"></path><path class="point" transform="translate(203.88,240.72)" d="M6,0A6,6 0 1,1 0,-6A6,6 0 0,1 6,0Z" style="opacity: 1; stroke-width: 0px; fill: rgb(178, 223, 138); fill-opacity: 1;"></path><path class="point" transform="translate(190.45,273.42)" d="M6,0A6,6 0 1,1 0,-6A6,6 0 0,1 6,0Z" style="opacity: 1; stroke-width: 0px; fill: rgb(31, 120, 180); fill-opacity: 1;"></path><path class="point" transform="translate(187.69,278.17)" d="M6,0A6,6 0 1,1 0,-6A6,6 0 0,1 6,0Z" style="opacity: 1; stroke-width: 0px; fill: rgb(31, 120, 180); fill-opacity: 1;"></path><path class="point" transform="translate(160.1,301.63)" d="M6,0A6,6 0 1,1 0,-6A6,6 0 0,1 6,0Z" style="opacity: 1; stroke-width: 0px; fill: rgb(192, 192, 192); fill-opacity: 1;"></path><path class="point" transform="translate(127.49,292.37)" d="M6,0A6,6 0 1,1 0,-6A6,6 0 0,1 6,0Z" style="opacity: 1; stroke-width: 0px; fill: rgb(31, 120, 180); fill-opacity: 1;"></path><path class="point" transform="translate(202.39,257.77)" d="M6,0A6,6 0 1,1 0,-6A6,6 0 0,1 6,0Z" style="opacity: 1; stroke-width: 0px; fill: rgb(31, 120, 180); fill-opacity: 1;"></path></g><g class="text"></g></g><g class="trace scatter tracefa0051" style="stroke-miterlimit: 2; opacity: 1;"><g class="fills"></g><g class="errorbars"></g><g class="lines"></g><g class="points"><path class="point" transform="translate(840.02,-872.35)" d="M5,0A5,5 0 1,1 0,-5A5,5 0 0,1 5,0Z" style="opacity: 1; stroke-width: 0px; fill: rgb(178, 223, 138); fill-opacity: 1;"></path></g><g class="text"></g></g><g class="trace scatter trace57d059" style="stroke-miterlimit: 2; opacity: 1;"><g class="fills"></g><g class="errorbars"></g><g class="lines"></g><g class="points"><path class="point" transform="translate(840.02,-872.35)" d="M5,0A5,5 0 1,1 0,-5A5,5 0 0,1 5,0Z" style="opacity: 1; stroke-width: 0px; fill: rgb(31, 120, 180); fill-opacity: 1;"></path></g><g class="text"></g></g><g class="trace scatter trace21f9c3" style="stroke-miterlimit: 2; opacity: 1;"><g class="fills"></g><g class="errorbars"></g><g class="lines"></g><g class="points"><path class="point" transform="translate(840.02,-872.35)" d="M5,0A5,5 0 1,1 0,-5A5,5 0 0,1 5,0Z" style="opacity: 1; stroke-width: 0px; fill: rgb(251, 154, 153); fill-opacity: 1;"></path></g><g class="text"></g></g><g class="trace scatter trace6bc077" style="stroke-miterlimit: 2; opacity: 1;"><g class="fills"></g><g class="errorbars"></g><g class="lines"></g><g class="points"><path class="point" transform="translate(840.02,-872.35)" d="M5,0A5,5 0 1,1 0,-5A5,5 0 0,1 5,0Z" style="opacity: 1; stroke-width: 0px; fill: rgb(51, 160, 44); fill-opacity: 1;"></path></g><g class="text"></g></g><g class="trace scatter trace50a815" style="stroke-miterlimit: 2; opacity: 1;"><g class="fills"></g><g class="errorbars"></g><g class="lines"></g><g class="points"><path class="point" transform="translate(840.02,-872.35)" d="M5,0A5,5 0 1,1 0,-5A5,5 0 0,1 5,0Z" style="opacity: 1; stroke-width: 0px; fill: rgb(192, 192, 192); fill-opacity: 1;"></path></g><g class="text"></g></g></g></g><g class="overplot"></g><path class="xlines-above crisp" d="M0,0" style="fill: none;"></path><path class="ylines-above crisp" d="M0,0" style="fill: none;"></path><g class="overlines-above"></g><g class="xaxislayer-above"><g class="xtick"><text text-anchor="middle" x="0" y="423" data-unformatted="−200" data-math="N" transform="translate(111.42,0)" style="font-family: &quot;Open Sans&quot;, verdana, arial, sans-serif; font-size: 12px; fill: rgb(68, 68, 68); fill-opacity: 1; white-space: pre;">−200</text></g><g class="xtick"><text text-anchor="middle" x="0" y="423" data-unformatted="−100" data-math="N" transform="translate(177.14,0)" style="font-family: &quot;Open Sans&quot;, verdana, arial, sans-serif; font-size: 12px; fill: rgb(68, 68, 68); fill-opacity: 1; white-space: pre;">−100</text></g><g class="xtick"><text text-anchor="middle" x="0" y="423" data-unformatted="0" data-math="N" transform="translate(242.85,0)" style="font-family: &quot;Open Sans&quot;, verdana, arial, sans-serif; font-size: 12px; fill: rgb(68, 68, 68); fill-opacity: 1; white-space: pre;">0</text></g><g class="xtick"><text text-anchor="middle" x="0" y="423" data-unformatted="100" data-math="N" transform="translate(308.57,0)" style="font-family: &quot;Open Sans&quot;, verdana, arial, sans-serif; font-size: 12px; fill: rgb(68, 68, 68); fill-opacity: 1; white-space: pre;">100</text></g></g><g class="yaxislayer-above"><g class="ytick"><text text-anchor="end" x="59" y="4.199999999999999" data-unformatted="−100" data-math="N" transform="translate(0,404.66)" style="font-family: &quot;Open Sans&quot;, verdana, arial, sans-serif; font-size: 12px; fill: rgb(68, 68, 68); fill-opacity: 1; white-space: pre;">−100</text></g><g class="ytick"><text text-anchor="end" x="59" y="4.199999999999999" data-unformatted="−50" data-math="N" transform="translate(0,347.75)" style="font-family: &quot;Open Sans&quot;, verdana, arial, sans-serif; font-size: 12px; fill: rgb(68, 68, 68); fill-opacity: 1; white-space: pre;">−50</text></g><g class="ytick"><text text-anchor="end" x="59" y="4.199999999999999" data-unformatted="0" data-math="N" transform="translate(0,290.84)" style="font-family: &quot;Open Sans&quot;, verdana, arial, sans-serif; font-size: 12px; fill: rgb(68, 68, 68); fill-opacity: 1; white-space: pre;">0</text></g><g class="ytick"><text text-anchor="end" x="59" y="4.199999999999999" data-unformatted="50" data-math="N" transform="translate(0,233.93)" style="font-family: &quot;Open Sans&quot;, verdana, arial, sans-serif; font-size: 12px; fill: rgb(68, 68, 68); fill-opacity: 1; white-space: pre;">50</text></g><g class="ytick"><text text-anchor="end" x="59" y="4.199999999999999" data-unformatted="100" data-math="N" transform="translate(0,177.02)" style="font-family: &quot;Open Sans&quot;, verdana, arial, sans-serif; font-size: 12px; fill: rgb(68, 68, 68); fill-opacity: 1; white-space: pre;">100</text></g><g class="ytick"><text text-anchor="end" x="59" y="4.199999999999999" data-unformatted="150" data-math="N" transform="translate(0,120.11)" style="font-family: &quot;Open Sans&quot;, verdana, arial, sans-serif; font-size: 12px; fill: rgb(68, 68, 68); fill-opacity: 1; white-space: pre;">150</text></g><g class="ytick"><text text-anchor="end" x="59" y="4.199999999999999" data-unformatted="200" data-math="N" transform="translate(0,63.2)" style="font-family: &quot;Open Sans&quot;, verdana, arial, sans-serif; font-size: 12px; fill: rgb(68, 68, 68); fill-opacity: 1; white-space: pre;">200</text></g></g><g class="overaxes-above"></g></g></g><g class="polarlayer"></g><g class="ternarylayer"></g><g class="geolayer"></g><g class="pielayer"></g><g class="glimages"></g><defs id="topdefs-dd0488"><g class="clips"></g><clipPath id="legenddd0488"><rect width="308" height="105" x="0" y="0"></rect></clipPath></defs><g class="layer-above"><g class="imagelayer"></g><g class="shapelayer"></g></g><g class="infolayer"><g class="legend" pointer-events="all" transform="translate(60, 25)"><rect class="bg" shape-rendering="crispEdges" width="308" height="105" x="0" y="0" style="stroke: rgb(68, 68, 68); stroke-opacity: 1; fill: rgb(255, 255, 255); fill-opacity: 1; stroke-width: 0px;"></rect><g class="scrollbox" transform="translate(0, 0)" clip-path="url(#legenddd0488)"><g class="groups" transform="translate(0, 0)"><g class="traces" transform="translate(0, 14.5)" style="opacity: 1;"><g class="layers" style="opacity: 1;"><g class="legendfill"></g><g class="legendlines"></g><g class="legendsymbols"><g class="legendpoints"><path class="scatterpts" transform="translate(20,0)" d="M5,0A5,5 0 1,1 0,-5A5,5 0 0,1 5,0Z" style="opacity: 1; stroke-width: 0px; fill: rgb(178, 223, 138); fill-opacity: 1;"></path></g></g></g><text class="legendtext user-select-none" text-anchor="start" x="40" y="4.680000000000001" data-unformatted="pancreas-adenocarcinoma-other subtype" data-math="N" style="font-family: &quot;Open Sans&quot;, verdana, arial, sans-serif; font-size: 12px; fill: rgb(68, 68, 68); fill-opacity: 1; white-space: pre;">pancreas-adenocarcinoma-other subtype</text><rect class="legendtoggle" pointer-events="all" x="0" y="-9.5" width="388" height="19" style="cursor: pointer; fill: rgb(0, 0, 0); fill-opacity: 0;"></rect></g><g class="traces" transform="translate(0, 33.5)" style="opacity: 1;"><g class="layers" style="opacity: 1;"><g class="legendfill"></g><g class="legendlines"></g><g class="legendsymbols"><g class="legendpoints"><path class="scatterpts" transform="translate(20,0)" d="M5,0A5,5 0 1,1 0,-5A5,5 0 0,1 5,0Z" style="opacity: 1; stroke-width: 0px; fill: rgb(31, 120, 180); fill-opacity: 1;"></path></g></g></g><text class="legendtext user-select-none" text-anchor="start" x="40" y="4.680000000000001" data-unformatted="pancreas-adenocarcinoma ductal type" data-math="N" style="font-family: &quot;Open Sans&quot;, verdana, arial, sans-serif; font-size: 12px; fill: rgb(68, 68, 68); fill-opacity: 1; white-space: pre;">pancreas-adenocarcinoma ductal type</text><rect class="legendtoggle" pointer-events="all" x="0" y="-9.5" width="388" height="19" style="cursor: pointer; fill: rgb(0, 0, 0); fill-opacity: 0;"></rect></g><g class="traces" transform="translate(0, 52.5)" style="opacity: 1;"><g class="layers" style="opacity: 1;"><g class="legendfill"></g><g class="legendlines"></g><g class="legendsymbols"><g class="legendpoints"><path class="scatterpts" transform="translate(20,0)" d="M5,0A5,5 0 1,1 0,-5A5,5 0 0,1 5,0Z" style="opacity: 1; stroke-width: 0px; fill: rgb(251, 154, 153); fill-opacity: 1;"></path></g></g></g><text class="legendtext user-select-none" text-anchor="start" x="40" y="4.680000000000001" data-unformatted="pancreas-undifferentiated carcinoma" data-math="N" style="font-family: &quot;Open Sans&quot;, verdana, arial, sans-serif; font-size: 12px; fill: rgb(68, 68, 68); fill-opacity: 1; white-space: pre;">pancreas-undifferentiated carcinoma</text><rect class="legendtoggle" pointer-events="all" x="0" y="-9.5" width="388" height="19" style="cursor: pointer; fill: rgb(0, 0, 0); fill-opacity: 0;"></rect></g><g class="traces" transform="translate(0, 71.5)" style="opacity: 1;"><g class="layers" style="opacity: 1;"><g class="legendfill"></g><g class="legendlines"></g><g class="legendsymbols"><g class="legendpoints"><path class="scatterpts" transform="translate(20,0)" d="M5,0A5,5 0 1,1 0,-5A5,5 0 0,1 5,0Z" style="opacity: 1; stroke-width: 0px; fill: rgb(51, 160, 44); fill-opacity: 1;"></path></g></g></g><text class="legendtext user-select-none" text-anchor="start" x="40" y="4.680000000000001" data-unformatted="pancreas-colloid (mucinous non-cystic) carcinoma" data-math="N" style="font-family: &quot;Open Sans&quot;, verdana, arial, sans-serif; font-size: 12px; fill: rgb(68, 68, 68); fill-opacity: 1; white-space: pre;">pancreas-colloid (mucinous non-cystic) carcinoma</text><rect class="legendtoggle" pointer-events="all" x="0" y="-9.5" width="388" height="19" style="cursor: pointer; fill: rgb(0, 0, 0); fill-opacity: 0;"></rect></g><g class="traces" transform="translate(0, 90.5)" style="opacity: 1;"><g class="layers" style="opacity: 1;"><g class="legendfill"></g><g class="legendlines"></g><g class="legendsymbols"><g class="legendpoints"><path class="scatterpts" transform="translate(20,0)" d="M5,0A5,5 0 1,1 0,-5A5,5 0 0,1 5,0Z" style="opacity: 1; stroke-width: 0px; fill: rgb(192, 192, 192); fill-opacity: 1;"></path></g></g></g><text class="legendtext user-select-none" text-anchor="start" x="40" y="4.680000000000001" data-unformatted="NA" data-math="N" style="font-family: &quot;Open Sans&quot;, verdana, arial, sans-serif; font-size: 12px; fill: rgb(68, 68, 68); fill-opacity: 1; white-space: pre;">NA</text><rect class="legendtoggle" pointer-events="all" x="0" y="-9.5" width="388" height="19" style="cursor: pointer; fill: rgb(0, 0, 0); fill-opacity: 0;"></rect></g></g></g><rect class="scrollbar" rx="20" ry="3" width="0" height="0" x="0" y="0" style="fill: rgb(128, 139, 164); fill-opacity: 1;"></rect></g><g class="g-gtitle"></g><g class="g-xtitle" transform="translate(0,-15)"><text class="xtitle" x="214" y="462" text-anchor="middle" data-unformatted="PC1 (13.9%)" data-math="N" style="font-family: &quot;Open Sans&quot;, verdana, arial, sans-serif; font-size: 14px; fill: rgb(68, 68, 68); opacity: 1; font-weight: normal; white-space: pre;">PC1 (13.9%)</text></g><g class="g-ytitle"><text class="ytitle" transform="rotate(-90,22,217.5)" x="22" y="217.5" text-anchor="middle" data-unformatted="PC2 (11.1%)" data-math="N" style="font-family: &quot;Open Sans&quot;, verdana, arial, sans-serif; font-size: 14px; fill: rgb(68, 68, 68); opacity: 1; font-weight: normal; white-space: pre;">PC2 (11.1%)</text></g></g><g class="menulayer"></g><g class="zoomlayer"></g><g class="hoverlayer"></g></svg>